<svg width="128" height="128" viewBox="0 0 128 128" fill="none" xmlns="http://www.w3.org/2000/svg">
<path d="M118.838 15.2101H110.9C109.801 13.3401 107.77 12.0911 105.469 12.0911C103.169 12.0911 101.137 13.3401 100.039 15.2101H12.162C9.40499 15.2101 7.16199 17.4531 7.16199 20.2101V113.908C7.16199 116.665 9.40499 118.908 12.162 118.908H118.838C121.595 118.908 123.838 116.665 123.838 113.908V20.2101C123.838 17.4531 121.595 15.2101 118.838 15.2101Z" fill="#E6E7E8"/>
<path d="M118.837 30.222H4.16199V109.909C4.16199 112.118 5.95299 113.909 8.16199 113.909H114.837C117.046 113.909 118.837 112.118 118.837 109.909V30.222Z" fill="#EBC714"/>
<path d="M114.837 110.909H8.16199C5.95299 110.909 4.16199 109.118 4.16199 106.909V109.909C4.16199 112.118 5.95299 113.909 8.16199 113.909H114.837C117.046 113.909 118.837 112.118 118.837 109.909V106.909C118.837 109.118 117.046 110.909 114.837 110.909Z" fill="white"/>
<path d="M114.837 12.2101H8.16199C5.95299 12.2101 4.16199 14.0011 4.16199 16.2101V30.2221H118.837V16.2101C118.837 14.0011 117.046 12.2101 114.837 12.2101Z" fill="#50CAE2"/>
<path d="M39.781 24.895C41.5798 24.895 43.038 23.4368 43.038 21.638C43.038 19.8392 41.5798 18.381 39.781 18.381C37.9822 18.381 36.524 19.8392 36.524 21.638C36.524 23.4368 37.9822 24.895 39.781 24.895Z" fill="white"/>
<path d="M27.949 24.895C29.7478 24.895 31.206 23.4368 31.206 21.638C31.206 19.8392 29.7478 18.381 27.949 18.381C26.1502 18.381 24.692 19.8392 24.692 21.638C24.692 23.4368 26.1502 24.895 27.949 24.895Z" fill="#D4FBFF"/>
<path d="M16.118 24.895C17.9168 24.895 19.375 23.4368 19.375 21.638C19.375 19.8392 17.9168 18.381 16.118 18.381C14.3192 18.381 12.861 19.8392 12.861 21.638C12.861 23.4368 14.3192 24.895 16.118 24.895Z" fill="#EBC714"/>
<path d="M74.567 82.03L57.627 75.853L45.512 54.837C43.878 52.003 40.781 50.339 37.516 50.54L38.326 68.815L22.258 62.956L16.974 53.031C16.227 51.628 14.73 50.791 13.144 50.889L13.005 65.277C12.96 69.924 15.849 74.095 20.215 75.687L74.862 95.614L85.9 99.639C87.733 100.307 89.761 99.363 90.43 97.53C91.098 95.697 90.154 93.669 88.321 93L88.141 92.935C87.174 92.582 86.313 91.987 85.641 91.207L82.414 87.458C80.305 85.006 77.604 83.138 74.567 82.03Z" fill="#FDF8E3"/>
<path d="M54.254 99.552C56.3052 99.552 57.968 97.8892 57.968 95.838C57.968 93.7868 56.3052 92.124 54.254 92.124C52.2028 92.124 50.54 93.7868 50.54 95.838C50.54 97.8892 52.2028 99.552 54.254 99.552Z" fill="#FDF8E3"/>
<path d="M21.895 86.312C23.5607 86.312 24.911 84.9617 24.911 83.296C24.911 81.6303 23.5607 80.28 21.895 80.28C20.2293 80.28 18.879 81.6303 18.879 83.296C18.879 84.9617 20.2293 86.312 21.895 86.312Z" fill="#FDF8E3"/>
<path d="M101.469 9.09204C104.265 9.09204 106.58 11.266 106.755 14.056L109.996 65.555H92.942L96.183 14.056C96.358 11.265 98.672 9.09204 101.469 9.09204Z" fill="#50CAE2"/>
<path d="M106.78 79.1091L109.996 65.5551H92.941L96.157 79.1091H106.78Z" fill="#50CAE2"/>
<path d="M106.65 78.8511H96.375C96.375 78.8511 93.047 82.6341 94.103 86.9221C95.622 93.0911 102.644 99.8521 102.644 99.8521C102.644 99.8521 102.052 95.4641 103.349 93.1131C104.646 90.7621 108.128 89.5081 108.99 86.2171C109.852 82.9261 106.65 78.8511 106.65 78.8511Z" fill="#FBF4D0"/>
<path d="M118.837 58.472C118.284 58.472 117.837 58.92 117.837 59.472V71.725C117.837 72.277 118.284 72.725 118.837 72.725C119.39 72.725 119.837 72.277 119.837 71.725V59.472C119.837 58.92 119.39 58.472 118.837 58.472Z" fill="#3A2C60"/>
<path d="M114.837 11.21H106.899C105.8 9.34104 103.769 8.09204 101.469 8.09204C99.168 8.09204 97.137 9.34104 96.038 11.21H8.16199C5.40499 11.21 3.16199 13.453 3.16199 16.21V109.909C3.16199 112.666 5.40499 114.909 8.16199 114.909H114.837C117.594 114.909 119.837 112.666 119.837 109.909V76.389C119.837 75.837 119.39 75.389 118.837 75.389C118.284 75.389 117.837 75.837 117.837 76.389V109.909C117.837 111.563 116.491 112.909 114.837 112.909H8.16199C6.50799 112.909 5.16199 111.563 5.16199 109.909V31.222H94.1L91.944 65.493C91.938 65.592 91.946 65.691 91.969 65.787L95.08 78.898C94.102 80.278 92.234 83.514 93.132 87.163C94.701 93.539 101.654 100.289 101.95 100.574C102.14 100.758 102.39 100.854 102.643 100.854C102.796 100.854 102.952 100.818 103.094 100.746C103.474 100.554 103.691 100.142 103.634 99.721C103.483 98.589 103.294 95.283 104.223 93.598C104.669 92.79 105.494 92.075 106.368 91.317C107.775 90.097 109.37 88.714 109.958 86.472C110.733 83.511 108.781 80.181 107.872 78.841L110.969 65.787C110.992 65.691 111 65.592 110.994 65.493L108.837 31.222H117.837V54.472C117.837 55.024 118.284 55.472 118.837 55.472C119.39 55.472 119.837 55.024 119.837 54.472V16.21C119.837 13.453 117.594 11.21 114.837 11.21ZM101.469 10.092C103.732 10.092 105.615 11.861 105.757 14.119L108.931 64.556H94.007L97.18 14.119C97.322 11.86 99.206 10.092 101.469 10.092ZM106.051 77.852H96.886L94.207 66.556H108.731L106.051 77.852ZM5.16199 29.222V16.21C5.16199 14.556 6.50799 13.21 8.16199 13.21H95.288C95.239 13.466 95.2 13.726 95.183 13.993L94.225 29.222H5.16199ZM108.022 85.964C107.592 87.608 106.361 88.675 105.058 89.805C104.09 90.643 103.09 91.511 102.472 92.63C101.754 93.931 101.542 95.715 101.513 97.202C99.383 94.811 96.032 90.577 95.073 86.683C94.383 83.882 95.884 81.249 96.676 80.108H106.314C107.22 81.479 108.53 84.026 108.022 85.964ZM107.753 13.993C107.736 13.726 107.697 13.467 107.648 13.21H114.837C116.491 13.21 117.837 14.556 117.837 16.21V29.222H108.711L107.753 13.993Z" fill="#3A2C60"/>
<path d="M87.104 100.852C88.956 100.852 90.698 99.709 91.369 97.872C91.784 96.734 91.731 95.503 91.22 94.405C90.709 93.307 89.801 92.474 88.664 92.06L88.483 91.994C87.678 91.701 86.958 91.202 86.399 90.553L83.172 86.804C80.958 84.231 78.101 82.255 74.91 81.092L58.312 75.04L46.378 54.337C44.541 51.152 41.107 49.311 37.454 49.542C36.909 49.576 36.492 50.04 36.516 50.584L37.259 67.362L22.959 62.148L17.855 52.561C16.926 50.817 15.039 49.769 13.081 49.891C12.558 49.923 12.147 50.355 12.143 50.879L12.004 65.267C11.955 70.328 15.116 74.892 19.87 76.626L85.555 100.577C86.066 100.763 86.59 100.852 87.104 100.852ZM14.005 65.286L14.133 51.973C14.958 52.18 15.679 52.727 16.091 53.501L21.375 63.426C21.491 63.644 21.684 63.811 21.915 63.896L37.982 69.755C38.296 69.87 38.646 69.82 38.917 69.622C39.186 69.424 39.339 69.105 39.324 68.771L38.561 51.54C41.083 51.704 43.357 53.101 44.646 55.336L56.762 76.353C56.879 76.557 57.065 76.712 57.285 76.793L74.224 82.97C77.094 84.017 79.663 85.794 81.656 88.108L84.882 91.857C85.663 92.765 86.671 93.462 87.797 93.873L87.977 93.939C88.614 94.171 89.121 94.636 89.407 95.25C89.692 95.863 89.722 96.551 89.49 97.187C89.011 98.5 87.551 99.177 86.242 98.699L20.557 74.747C16.597 73.303 13.964 69.5 14.005 65.286Z" fill="#3A2C60"/>
<path d="M52.265 91.564C51.123 92.096 50.257 93.04 49.827 94.222C49.395 95.405 49.45 96.685 49.982 97.826C50.513 98.967 51.458 99.833 52.64 100.264C53.171 100.458 53.715 100.55 54.249 100.55C56.174 100.55 57.985 99.362 58.683 97.451C59.573 95.009 58.311 92.298 55.87 91.408C54.685 90.977 53.404 91.033 52.265 91.564ZM56.804 96.768C56.29 98.174 54.727 98.898 53.325 98.387C52.643 98.138 52.1 97.64 51.794 96.983C51.488 96.326 51.457 95.589 51.705 94.908C51.953 94.227 52.452 93.684 53.108 93.378C53.473 93.209 53.862 93.123 54.253 93.123C54.566 93.123 54.881 93.178 55.184 93.289C56.589 93.801 57.315 95.361 56.804 96.768Z" fill="#3A2C60"/>
<path d="M18.122 81.92C17.363 84.001 18.439 86.311 20.519 87.069C20.971 87.234 21.435 87.312 21.891 87.312C23.531 87.312 25.074 86.3 25.668 84.672C26.427 82.591 25.351 80.2811 23.271 79.5231C21.185 78.7641 18.881 79.841 18.122 81.92ZM23.79 83.987C23.409 85.031 22.247 85.5731 21.205 85.1911C20.16 84.8101 19.62 83.6501 20.001 82.6061C20.299 81.7891 21.074 81.28 21.897 81.28C22.126 81.28 22.359 81.32 22.585 81.402C23.631 81.782 24.171 82.942 23.79 83.987Z" fill="#3A2C60"/>
</svg>
