<svg width="113" height="125" viewBox="0 0 113 125" fill="none" xmlns="http://www.w3.org/2000/svg">
<g clip-path="url(#clip0_53:800)">
<path d="M110.708 78.5124H103.72V23.1084C103.72 22.8336 103.609 22.5713 103.41 22.3781L85.0208 4.43489C84.8229 4.24067 84.554 4.1322 84.2725 4.1322H13.4093C11.6586 4.1322 10.2339 5.5227 10.2339 7.23138V121.901C10.2339 123.609 11.6586 125 13.4093 125H100.544C102.295 125 103.72 123.609 103.72 121.901V115.186H110.708C113.626 115.186 116 112.869 116 110.021V83.6777C116 80.8295 113.626 78.5124 110.708 78.5124Z" fill="#E6E7E8"/>
<path d="M80.0386 1.03308H9.1754C8.0058 1.03308 7.05847 1.95767 7.05847 3.0992V117.769C7.05847 118.91 8.0058 119.835 9.1754 119.835H96.3104C97.48 119.835 98.4273 118.91 98.4273 117.769V18.9763L80.0386 1.03308Z" fill="#EBC714"/>
<path d="M80.0386 1.03308H9.1754C8.0058 1.03308 7.05847 1.9587 7.05847 3.0992V6.19837C7.05847 5.05684 8.0058 4.13225 9.1754 4.13225H80.0386V1.03308Z" fill="white"/>
<path d="M80.0386 16.9122V1.03308L98.4273 18.9763L82.1555 18.9783C80.987 18.9783 80.0386 18.0527 80.0386 16.9122Z" fill="#EBC714"/>
<path d="M106.474 110.021H25.5011C23.1629 110.021 21.2672 108.17 21.2672 105.888V79.5454C21.2672 77.2634 23.1629 75.4132 25.5011 75.4132H106.474C108.812 75.4132 110.708 77.2634 110.708 79.5454V105.888C110.708 108.17 108.812 110.021 106.474 110.021Z" fill="#FBF4D0"/>
<path d="M7.05847 37.4483C7.6438 37.4483 8.11693 36.9865 8.11693 36.4152V24.0495C8.11693 23.4783 7.6438 23.0165 7.05847 23.0165C6.47313 23.0165 6 23.4783 6 24.0495V36.4152C6 36.9865 6.47313 37.4483 7.05847 37.4483Z" fill="#3A2C60"/>
<path d="M106.474 74.3802H99.4858V18.9762C99.4858 18.7014 99.3747 18.439 99.1757 18.2459L80.7869 0.302686C80.589 0.108471 80.3202 0 80.0386 0H9.1754C7.42469 0 6 1.3905 6 3.09917V18.8533C6 19.4246 6.47313 19.8864 7.05847 19.8864C7.6438 19.8864 8.11693 19.4246 8.11693 18.8533V3.09917C8.11693 2.52893 8.59112 2.06612 9.1754 2.06612H78.9801V16.9122C78.9801 18.6209 80.4048 20.0114 82.1555 20.0114L97.3689 20.0093V74.3802H25.5012C22.583 74.3802 20.2088 76.6973 20.2088 79.5454V105.888C20.2088 108.737 22.583 111.054 25.5012 111.054H97.3689V117.769C97.3689 118.339 96.8947 118.802 96.3104 118.802H9.1754C8.59112 118.802 8.11693 118.339 8.11693 117.769V41.5806C8.11693 41.0093 7.6438 40.5475 7.05847 40.5475C6.47313 40.5475 6 41.0093 6 41.5806V117.769C6 119.477 7.42469 120.868 9.1754 120.868H96.3104C98.0611 120.868 99.4858 119.477 99.4858 117.769V111.054H106.474C109.392 111.054 111.766 108.737 111.766 105.888V79.5454C111.766 76.6973 109.392 74.3802 106.474 74.3802ZM81.0971 16.9122V3.52686L95.8722 17.9442L82.1555 17.9463C81.5723 17.9452 81.0971 17.4824 81.0971 16.9122ZM109.649 105.888C109.649 107.597 108.224 108.988 106.474 108.988H25.5012C23.7505 108.988 22.3258 107.597 22.3258 105.888V79.5454C22.3258 77.8368 23.7505 76.4463 25.5012 76.4463H106.474C108.224 76.4463 109.649 77.8368 109.649 79.5454V105.888Z" fill="#3A2C60"/>
<path d="M68.2992 91.6838H65.7662C64.1605 91.6838 62.8555 90.4101 62.8555 88.8429C62.8555 87.2758 64.1605 86.002 65.7662 86.002H71.7021C72.2874 86.002 72.7606 85.5403 72.7606 84.969C72.7606 84.3977 72.2874 83.9359 71.7021 83.9359H65.7662C62.9941 83.9359 60.7385 86.1374 60.7385 88.8429C60.7385 91.5485 62.9941 93.75 65.7662 93.75H68.2992C69.9048 93.75 71.2099 95.0237 71.2099 96.5909C71.2099 98.158 69.9048 99.4318 68.2992 99.4318H62.3633C61.7779 99.4318 61.3048 99.8936 61.3048 100.465C61.3048 101.036 61.7779 101.498 62.3633 101.498H68.2992C71.0713 101.498 73.3269 99.2964 73.3269 96.5909C73.3269 93.8853 71.0723 91.6838 68.2992 91.6838Z" fill="#3A2C60"/>
<path d="M85.2347 91.6838H82.7018C81.0961 91.6838 79.791 90.4101 79.791 88.8429C79.791 87.2758 81.0961 86.002 82.7018 86.002H88.6377C89.223 86.002 89.6961 85.5403 89.6961 84.969C89.6961 84.3977 89.223 83.9359 88.6377 83.9359H82.7018C79.9297 83.9359 77.6741 86.1374 77.6741 88.8429C77.6741 91.5485 79.9297 93.75 82.7018 93.75H85.2347C86.8404 93.75 88.1455 95.0237 88.1455 96.5909C88.1455 98.158 86.8404 99.4318 85.2347 99.4318H79.2988C78.7135 99.4318 78.2404 99.8936 78.2404 100.465C78.2404 101.036 78.7135 101.498 79.2988 101.498H85.2347C88.0068 101.498 90.2624 99.2964 90.2624 96.5909C90.2624 93.8853 88.0079 91.6838 85.2347 91.6838Z" fill="#3A2C60"/>
<path d="M49.0022 86.002C50.8461 86.002 52.5565 86.7593 53.8182 88.1363C54.2067 88.5609 54.8767 88.5971 55.3128 88.2169C55.7478 87.8367 55.7849 87.1838 55.3954 86.7582C53.7516 84.9648 51.4219 83.9359 49.0022 83.9359C44.2021 83.9359 40.2953 87.875 40.2953 92.7169C40.2953 97.5588 44.201 101.498 49.0022 101.498C51.4187 101.498 53.7484 100.469 55.3932 98.6756C55.7828 98.25 55.7457 97.5971 55.3107 97.2169C54.8735 96.8357 54.2046 96.8719 53.8161 97.2975C52.5544 98.6745 50.844 99.4318 49.0022 99.4318C45.3685 99.4318 42.4122 96.4194 42.4122 92.7169C42.4122 89.0144 45.3685 86.002 49.0022 86.002Z" fill="#3A2C60"/>
<path d="M21.2672 25.0826H63.0501C63.6355 25.0826 64.1086 24.6208 64.1086 24.0495C64.1086 23.4783 63.6355 23.0165 63.0501 23.0165H21.2672C20.6819 23.0165 20.2087 23.4783 20.2087 24.0495C20.2087 24.6208 20.6819 25.0826 21.2672 25.0826Z" fill="#3A2C60"/>
<path d="M21.2672 35.4133H84.2194C84.8048 35.4133 85.2779 34.9515 85.2779 34.3802C85.2779 33.8089 84.8048 33.3472 84.2194 33.3472H21.2672C20.6819 33.3472 20.2087 33.8089 20.2087 34.3802C20.2087 34.9515 20.6819 35.4133 21.2672 35.4133Z" fill="#3A2C60"/>
<path d="M21.2672 45.7438H84.2194C84.8048 45.7438 85.2779 45.2821 85.2779 44.7108C85.2779 44.1395 84.8048 43.6777 84.2194 43.6777H21.2672C20.6819 43.6777 20.2087 44.1395 20.2087 44.7108C20.2087 45.2821 20.6819 45.7438 21.2672 45.7438Z" fill="#3A2C60"/>
<path d="M21.2672 56.0744H84.2194C84.8048 56.0744 85.2779 55.6126 85.2779 55.0414C85.2779 54.4701 84.8048 54.0083 84.2194 54.0083H21.2672C20.6819 54.0083 20.2087 54.4701 20.2087 55.0414C20.2087 55.6126 20.6819 56.0744 21.2672 56.0744Z" fill="#3A2C60"/>
<path d="M21.2672 66.4049H84.2194C84.8048 66.4049 85.2779 65.9431 85.2779 65.3718C85.2779 64.8005 84.8048 64.3387 84.2194 64.3387H21.2672C20.6819 64.3387 20.2087 64.8005 20.2087 65.3718C20.2087 65.9431 20.6819 66.4049 21.2672 66.4049Z" fill="#3A2C60"/>
</g>
<defs>
<clipPath id="clip0_53:800">
<rect width="113" height="125" fill="white"/>
</clipPath>
</defs>
</svg>
