<svg width="128" height="128" viewBox="0 0 128 128" fill="none" xmlns="http://www.w3.org/2000/svg">
<path d="M118.838 15.2101H110.9C109.801 13.3401 107.77 12.0911 105.469 12.0911C103.169 12.0911 101.137 13.3401 100.039 15.2101H12.162C9.405 15.2101 7.162 17.4531 7.162 20.2101V113.908C7.162 116.665 9.405 118.908 12.162 118.908H118.838C121.595 118.908 123.838 116.665 123.838 113.908V20.2101C123.838 17.4531 121.595 15.2101 118.838 15.2101Z" fill="#E6E7E8"/>
<path d="M118.837 30.222H4.162V109.909C4.162 112.118 5.953 113.909 8.162 113.909H114.837C117.046 113.909 118.837 112.118 118.837 109.909V30.222Z" fill="#EBC714"/>
<path d="M68.381 63.9171H35.881V93.1671H68.381V63.9171Z" fill="#FBF4D0"/>
<path d="M68.381 76.9731C75.5916 76.9731 81.437 71.1277 81.437 63.9171C81.437 56.7065 75.5916 50.8611 68.381 50.8611C61.1704 50.8611 55.325 56.7065 55.325 63.9171C55.325 71.1277 61.1704 76.9731 68.381 76.9731Z" fill="#FFD7E5"/>
<path d="M55.325 63.9171C55.325 71.1271 61.17 76.9731 68.381 76.9731V63.9171H55.325Z" fill="#FFD7E5"/>
<path d="M19.949 104.632L35.881 75.5481L51.812 104.632H19.949Z" fill="#50CAE2"/>
<path d="M45.532 93.1671L35.881 75.5481V93.1671H45.532Z" fill="#50CAE2"/>
<path d="M114.837 110.909H8.162C5.953 110.909 4.162 109.118 4.162 106.909V109.909C4.162 112.118 5.953 113.909 8.162 113.909H114.837C117.046 113.909 118.837 112.118 118.837 109.909V106.909C118.837 109.118 117.046 110.909 114.837 110.909Z" fill="white"/>
<path d="M114.837 12.2101H8.162C5.953 12.2101 4.162 14.0011 4.162 16.2101V30.2221H118.837V16.2101C118.837 14.0011 117.046 12.2101 114.837 12.2101Z" fill="#50CAE2"/>
<path d="M39.781 24.895C41.5798 24.895 43.038 23.4368 43.038 21.638C43.038 19.8392 41.5798 18.381 39.781 18.381C37.9822 18.381 36.524 19.8392 36.524 21.638C36.524 23.4368 37.9822 24.895 39.781 24.895Z" fill="white"/>
<path d="M27.949 24.895C29.7478 24.895 31.206 23.4368 31.206 21.638C31.206 19.8392 29.7478 18.381 27.949 18.381C26.1502 18.381 24.692 19.8392 24.692 21.638C24.692 23.4368 26.1502 24.895 27.949 24.895Z" fill="#D4FBFF"/>
<path d="M16.118 24.895C17.9168 24.895 19.375 23.4368 19.375 21.638C19.375 19.8392 17.9168 18.381 16.118 18.381C14.3192 18.381 12.861 19.8392 12.861 21.638C12.861 23.4368 14.3192 24.895 16.118 24.895Z" fill="#EBC714"/>
<path d="M101.307 8C104.103 8 106.418 10.174 106.593 12.964L109.834 64.463H92.78L96.021 12.964C96.196 10.173 98.51 8 101.307 8Z" fill="#6DC9F7"/>
<path d="M106.618 78.017L109.834 64.463H92.779L95.995 78.017H106.618Z" fill="#50CAE2"/>
<path d="M106.488 77.759H96.213C96.213 77.759 92.885 81.542 93.941 85.83C95.46 91.999 102.482 98.76 102.482 98.76C102.482 98.76 101.89 94.372 103.187 92.021C104.484 89.67 107.966 88.416 108.828 85.125C109.69 81.834 106.488 77.759 106.488 77.759Z" fill="#FFD7E5"/>
<path d="M40.321 49.048C38.125 49.048 36.338 50.835 36.338 53.031C36.338 55.227 38.125 57.014 40.321 57.014C42.024 57.014 43.657 56.417 44.964 55.338V56.35C44.964 56.902 45.411 57.35 45.964 57.35C46.517 57.35 46.964 56.902 46.964 56.35V47.453C46.964 45.356 45.259 43.651 43.162 43.651H37.7C37.147 43.651 36.7 44.099 36.7 44.651C36.7 45.203 37.147 45.651 37.7 45.651H43.162C44.155 45.651 44.964 46.46 44.964 47.453V49.048H40.321ZM43.892 53.631C42.913 54.523 41.646 55.014 40.322 55.014C39.228 55.014 38.339 54.124 38.339 53.031C38.339 51.938 39.229 51.048 40.322 51.048H44.965V52.654L43.892 53.631Z" fill="#3A2C60"/>
<path d="M31.015 52.691L32.885 56.767C33.054 57.134 33.416 57.35 33.795 57.35C33.934 57.35 34.076 57.32 34.211 57.258C34.713 57.028 34.934 56.434 34.703 55.932L26.56 38.182C26.397 37.827 26.041 37.599 25.651 37.599C25.261 37.599 24.905 37.827 24.742 38.182L16.599 55.932C16.369 56.434 16.589 57.028 17.091 57.258C17.591 57.487 18.186 57.268 18.417 56.766L20.287 52.69H31.015V52.691ZM25.651 40.998L30.097 50.691H21.204L25.651 40.998Z" fill="#3A2C60"/>
<path d="M69.219 92.075V76.83C76.502 76.314 82.275 70.238 82.275 62.825C82.275 55.075 75.969 48.769 68.219 48.769C60.807 48.769 54.73 54.541 54.214 61.825H35.719C35.166 61.825 34.719 62.273 34.719 62.825V74.2L18.91 103.059C18.74 103.369 18.747 103.745 18.927 104.049C19.107 104.353 19.434 104.539 19.787 104.539H51.649C52.003 104.539 52.33 104.352 52.509 104.049C52.689 103.745 52.696 103.369 52.526 103.059L47.057 93.074H68.219C68.772 93.075 69.219 92.627 69.219 92.075ZM67.219 74.83C61.369 74.346 56.698 69.675 56.214 63.825H67.219V74.83ZM68.219 50.769C74.866 50.769 80.275 56.177 80.275 62.825C80.275 69.135 75.4 74.319 69.219 74.83V62.825C69.219 62.273 68.772 61.825 68.219 61.825H56.214C56.725 55.644 61.909 50.769 68.219 50.769ZM36.719 78.363L43.682 91.074H36.719V78.363ZM21.476 102.54L34.719 78.363V92.074C34.719 92.626 35.166 93.074 35.719 93.074H44.777L49.962 102.539H21.476V102.54ZM45.962 91.075L36.719 74.201V63.825H54.214C54.707 70.777 60.267 76.337 67.219 76.83V91.075H45.962Z" fill="#3A2C60"/>
<path d="M118.675 57.38C118.122 57.38 117.675 57.828 117.675 58.38V70.633C117.675 71.185 118.122 71.633 118.675 71.633C119.228 71.633 119.675 71.185 119.675 70.633V58.38C119.675 57.828 119.228 57.38 118.675 57.38Z" fill="#3A2C60"/>
<path d="M114.675 10.118H106.737C105.638 8.249 103.607 7 101.307 7C99.006 7 96.975 8.249 95.876 10.118H8.00002C5.24302 10.118 3.00002 12.361 3.00002 15.118V108.817C3.00002 111.574 5.24302 113.817 8.00002 113.817H114.675C117.432 113.817 119.675 111.574 119.675 108.817V75.297C119.675 74.745 119.228 74.297 118.675 74.297C118.122 74.297 117.675 74.745 117.675 75.297V108.817C117.675 110.471 116.329 111.817 114.675 111.817H8.00002C6.34602 111.817 5.00002 110.471 5.00002 108.817V30.13H93.938L91.782 64.401C91.776 64.5 91.784 64.599 91.807 64.695L94.918 77.806C93.94 79.186 92.072 82.422 92.97 86.071C94.539 92.447 101.492 99.197 101.788 99.482C101.978 99.666 102.228 99.762 102.481 99.762C102.634 99.762 102.79 99.726 102.932 99.654C103.312 99.462 103.529 99.05 103.472 98.629C103.321 97.497 103.132 94.191 104.061 92.506C104.507 91.698 105.332 90.983 106.206 90.225C107.613 89.005 109.208 87.622 109.796 85.38C110.571 82.419 108.619 79.089 107.71 77.749L110.807 64.695C110.83 64.599 110.838 64.5 110.832 64.401L108.675 30.13H117.675V53.38C117.675 53.932 118.122 54.38 118.675 54.38C119.228 54.38 119.675 53.932 119.675 53.38V15.118C119.675 12.361 117.432 10.118 114.675 10.118ZM101.307 9C103.57 9 105.453 10.769 105.595 13.027L108.769 63.464H93.845L97.018 13.027C97.16 10.768 99.044 9 101.307 9ZM105.889 76.76H96.724L94.045 65.464H108.569L105.889 76.76ZM5.00002 28.13V15.118C5.00002 13.464 6.34602 12.118 8.00002 12.118H95.126C95.077 12.374 95.038 12.634 95.021 12.901L94.063 28.13H5.00002ZM107.86 84.872C107.43 86.516 106.199 87.583 104.896 88.713C103.928 89.551 102.928 90.419 102.31 91.538C101.592 92.839 101.38 94.623 101.351 96.11C99.221 93.719 95.87 89.485 94.911 85.591C94.221 82.79 95.722 80.157 96.514 79.016H106.152C107.058 80.387 108.368 82.934 107.86 84.872ZM107.591 12.901C107.574 12.634 107.535 12.375 107.486 12.118H114.675C116.329 12.118 117.675 13.464 117.675 15.118V28.13H108.549L107.591 12.901Z" fill="#3A2C60"/>
</svg>
