<svg width="176" height="168" viewBox="0 0 176 168" fill="none" xmlns="http://www.w3.org/2000/svg">
<g clip-path="url(#clip0_36:742)">
<path d="M1.97778 154.505C1.83128 154.505 1.75803 154.431 1.75803 154.285L1.84593 124.031C1.84593 123.913 1.90453 123.854 2.02173 123.854L10.2406 123.81C11.8521 123.781 13.3172 124.163 14.6357 124.955C15.9836 125.748 17.0531 126.82 17.8442 128.17C18.6353 129.491 19.0309 130.959 19.0309 132.574V145.213C19.0309 146.916 18.6206 148.472 17.8002 149.881C16.9798 151.261 15.881 152.362 14.5039 153.184C13.1267 154.006 11.5738 154.431 9.84505 154.461L1.97778 154.505ZM7.12008 149.088H9.84505C10.9292 149.088 11.8375 148.707 12.57 147.943C13.3319 147.18 13.7128 146.27 13.7128 145.213V132.53C13.7128 131.59 13.3611 130.783 12.6579 130.108C11.984 129.403 11.1782 129.066 10.2406 129.095L7.16403 129.139L7.12008 149.088ZM22.6647 154.505C22.5476 154.505 22.4889 154.431 22.4889 154.285L22.5768 124.031C22.5768 123.913 22.6355 123.854 22.7526 123.854H31.6308C33.213 123.854 34.6634 124.251 35.982 125.043C37.3297 125.807 38.3993 126.849 39.1904 128.17C39.9815 129.462 40.3771 130.93 40.3771 132.574C40.3771 133.66 40.216 134.644 39.8936 135.524C39.5712 136.376 39.1904 137.11 38.7509 137.726C38.3114 138.314 37.9158 138.754 37.5642 139.048C39.1465 140.809 39.9376 142.879 39.9376 145.257L39.9815 154.285C39.9815 154.431 39.9083 154.505 39.7618 154.505H34.7953C34.6782 154.505 34.6195 154.461 34.6195 154.373V145.257C34.6195 144.2 34.2386 143.29 33.4767 142.526C32.7443 141.734 31.8358 141.337 30.7518 141.337H27.851L27.807 154.285C27.807 154.431 27.7484 154.505 27.6312 154.505H22.6647ZM27.851 136.053H31.6308C32.539 136.053 33.3449 135.715 34.0481 135.04C34.7513 134.365 35.1029 133.543 35.1029 132.574C35.1029 131.634 34.7513 130.827 34.0481 130.152C33.3741 129.477 32.5685 129.139 31.6308 129.139H27.851V136.053ZM43.9116 154.505C43.7653 154.505 43.6919 154.431 43.6919 154.285L43.7358 124.031C43.7358 123.913 43.7945 123.854 43.9116 123.854H48.8342C48.9515 123.854 49.01 123.913 49.01 124.031L49.0539 154.285C49.0539 154.431 48.9955 154.505 48.8781 154.505H43.9116ZM57.8426 154.505C57.7253 154.505 57.6521 154.431 57.6227 154.285L51.5576 124.031C51.5282 123.913 51.5868 123.854 51.7334 123.854H56.6999C56.817 123.854 56.8902 123.913 56.9197 124.031L60.5237 144.2L64.0398 124.031C64.069 123.913 64.1422 123.854 64.2595 123.854H69.1821C69.3284 123.854 69.3871 123.913 69.3579 124.031L63.3805 154.285C63.351 154.431 63.2779 154.505 63.1607 154.505H57.8426ZM72.1099 154.505C71.9927 154.505 71.9341 154.431 71.9341 154.285L71.978 124.031C71.978 123.913 72.0367 123.854 72.1538 123.854H86.2622C86.3793 123.854 86.438 123.928 86.438 124.075V129.007C86.438 129.124 86.3793 129.183 86.2622 129.183H77.2522V136.053H86.2622C86.3793 136.053 86.438 136.112 86.438 136.229L86.4819 141.205C86.4819 141.323 86.4232 141.382 86.3061 141.382H77.2522V149.088H86.3061C86.4232 149.088 86.4819 149.161 86.4819 149.308V154.329C86.4819 154.446 86.4232 154.505 86.3061 154.505H72.1099ZM97.09 154.505C96.9726 154.505 96.9142 154.431 96.9142 154.285L97.0021 124.031C97.0021 123.913 97.0605 123.854 97.1779 123.854H102.54C102.657 123.854 102.76 123.913 102.848 124.031L106.847 129.844L110.847 124.031C110.935 123.913 111.037 123.854 111.154 123.854H116.56C116.677 123.854 116.736 123.913 116.736 124.031L116.824 154.285C116.824 154.431 116.765 154.505 116.648 154.505H111.682C111.564 154.505 111.506 154.431 111.506 154.285L111.462 131.825L106.847 138.519L102.276 131.825L102.232 154.285C102.232 154.431 102.174 154.505 102.056 154.505H97.09ZM128.652 154.945C127.07 154.945 125.619 154.549 124.301 153.756C123.011 152.934 121.971 151.863 121.18 150.541C120.389 149.191 119.993 147.708 119.993 146.094L120.037 132.134C120.037 130.519 120.418 129.051 121.18 127.73C121.971 126.409 123.026 125.352 124.345 124.559C125.663 123.766 127.099 123.37 128.652 123.37C130.234 123.37 131.67 123.766 132.959 124.559C134.248 125.352 135.274 126.409 136.036 127.73C136.827 129.051 137.222 130.519 137.222 132.134L137.266 146.094C137.266 147.708 136.871 149.191 136.08 150.541C135.318 151.863 134.278 152.934 132.959 153.756C131.67 154.549 130.234 154.945 128.652 154.945ZM128.652 149.617C129.531 149.617 130.292 149.264 130.937 148.56C131.611 147.826 131.948 147.004 131.948 146.094L131.904 132.134C131.904 131.165 131.597 130.343 130.981 129.667C130.366 128.992 129.589 128.655 128.652 128.655C127.743 128.655 126.967 128.992 126.322 129.667C125.678 130.313 125.355 131.135 125.355 132.134V146.094C125.355 147.062 125.678 147.899 126.322 148.604C126.967 149.279 127.743 149.617 128.652 149.617ZM144.445 154.505C144.328 154.505 144.269 154.431 144.269 154.285V129.183H138.556C138.409 129.183 138.336 129.11 138.336 128.963L138.38 124.031C138.38 123.913 138.438 123.854 138.556 123.854H155.257C155.404 123.854 155.477 123.913 155.477 124.031V128.963C155.477 129.11 155.418 129.183 155.301 129.183H149.543L149.587 154.285C149.587 154.431 149.529 154.505 149.411 154.505H144.445ZM164.791 154.945C163.209 154.945 161.759 154.549 160.44 153.756C159.151 152.934 158.111 151.863 157.32 150.541C156.529 149.191 156.133 147.708 156.133 146.094L156.177 132.134C156.177 130.519 156.558 129.051 157.32 127.73C158.111 126.409 159.166 125.352 160.484 124.559C161.803 123.766 163.238 123.37 164.791 123.37C166.374 123.37 167.809 123.766 169.099 124.559C170.388 125.352 171.413 126.409 172.175 127.73C172.966 129.051 173.362 130.519 173.362 132.134L173.406 146.094C173.406 147.708 173.01 149.191 172.219 150.541C171.457 151.863 170.417 152.934 169.099 153.756C167.809 154.549 166.374 154.945 164.791 154.945ZM164.791 149.617C165.67 149.617 166.432 149.264 167.077 148.56C167.751 147.826 168.088 147.004 168.088 146.094L168.044 132.134C168.044 131.165 167.736 130.343 167.121 129.667C166.505 128.992 165.729 128.655 164.791 128.655C163.883 128.655 163.106 128.992 162.462 129.667C161.817 130.313 161.495 131.135 161.495 132.134V146.094C161.495 147.062 161.817 147.899 162.462 148.604C163.106 149.279 163.883 149.617 164.791 149.617Z" fill="#2F3035"/>
<path d="M129.753 17.8907C128.207 16.3419 125.78 16.1135 123.973 17.3473C117.166 21.9966 83.0197 45.3756 79.35 49.0523C74.0283 54.3848 74.0283 63.0607 79.35 68.393C82.0108 71.0591 85.5064 72.3921 89.0014 72.3921C92.4964 72.3921 95.9916 71.0591 98.6527 68.393C102.322 64.7161 125.655 30.5029 130.296 23.6819C131.526 21.8715 131.299 19.4399 129.753 17.8907ZM92.2182 61.9461C90.4446 63.7237 87.5581 63.7237 85.7844 61.9461C84.0103 60.169 84.0101 57.2777 85.7833 55.5003C87.2093 54.0885 96.9039 47.1609 108.832 38.8534C100.541 50.8048 93.6269 60.518 92.2182 61.9461Z" fill="#2F3035"/>
<path d="M51.7466 79.9254L46.1301 82.6708C42.0204 75.3217 39.8651 67.1193 39.8651 58.7226C39.8651 52.5705 40.9972 46.6782 43.0636 41.2442L49.4992 44.3372C50.1338 44.6421 50.8039 44.7868 51.4638 44.7868C53.1592 44.7868 54.7867 43.8327 55.5691 42.1985C56.6555 39.9286 55.7 37.2055 53.4343 36.1166L47.0803 33.0628C54.9779 20.1575 68.6421 11.1599 84.4518 9.6989V16.5553C84.4518 19.073 86.4887 21.1139 89.0014 21.1139C91.5141 21.1139 93.551 19.073 93.551 16.5553V9.69549C98.9715 10.1899 104.216 11.573 109.195 13.8249C111.485 14.8608 114.18 13.8399 115.214 11.5458C116.248 9.25102 115.229 6.55119 112.939 5.51525C105.394 2.10291 97.3405 0.372467 89.0012 0.372467C73.446 0.372467 58.8219 6.44178 47.8224 17.4627C36.8234 28.4838 30.7658 43.1367 30.7658 58.7226C30.7658 70.2398 34.1776 81.4412 40.6324 91.1148C41.5018 92.4174 42.9392 93.1403 44.4175 93.1403C45.0895 93.1403 45.7701 92.991 46.4096 92.6784L55.7363 88.1198C57.9947 87.016 58.9324 84.287 57.8308 82.0241C56.7289 79.7614 54.0053 78.8221 51.7466 79.9254Z" fill="#2F3035"/>
<path d="M142.104 34.738C141.07 32.4435 138.376 31.4224 136.085 32.4586C133.795 33.4946 132.777 36.1946 133.811 38.4892C136.682 44.8615 138.137 51.669 138.137 58.7226C138.137 67.1318 135.975 75.3477 131.853 82.7049L125.989 79.9072C123.721 78.8249 121.006 79.7898 119.926 82.063C118.845 84.3361 119.809 87.0565 122.078 88.1389L131.632 92.6975C132.26 92.9972 132.926 93.1405 133.585 93.1405C135.064 93.1405 136.502 92.4168 137.37 91.1152C143.825 81.4414 147.237 70.24 147.237 58.7226C147.237 50.3671 145.51 42.2973 142.104 34.738Z" fill="#2F3035"/>
</g>
<defs>
<clipPath id="clip0_36:742">
<rect width="175.805" height="167.344" fill="white" transform="translate(0 0.372467)"/>
</clipPath>
</defs>
</svg>
