<svg width="110" height="125" viewBox="0 0 110 125" fill="none" xmlns="http://www.w3.org/2000/svg">
<path d="M102.363 42.4648H98.2145V20.1211C98.2145 16.3516 95.516 13.2852 92.1988 13.2852H21.0426C17.7254 13.2852 15.027 16.3516 15.027 20.1211V77.2754H7.29688C6.8225 77.2754 6.4375 77.7129 6.4375 78.252V82.0928C6.4375 85.833 9.11531 88.875 12.4059 88.875H26.7179C27.8849 93.6563 29.9534 98.6494 33.5783 102.547C42.3216 111.947 54.0976 110.524 57.6855 109.816V113.668C57.6855 114.055 57.8866 114.405 58.1977 114.562C58.3094 114.618 58.428 114.645 58.5448 114.645C58.7545 114.645 58.9616 114.557 59.1232 114.39L68.7387 104.437C68.9175 104.252 69.0198 103.989 69.0198 103.715C69.0198 103.44 68.9175 103.178 68.7387 102.993L59.1241 93.0391C58.8723 92.7783 58.5088 92.7109 58.1977 92.8682C57.8866 93.0244 57.6855 93.375 57.6855 93.7617V97.9951C55.4159 98.4258 47.7296 99.4434 40.5538 95.2324C38.2464 93.8789 36.1865 91.544 34.4127 88.875H71.3753V108.786C71.3753 112.018 73.6879 114.646 76.5316 114.646H102.363C105.206 114.646 107.519 112.018 107.519 108.786V48.3242C107.519 45.0938 105.206 42.4648 102.363 42.4648Z" fill="#E6E7E8"/>
<path d="M93.9185 74.3447V16.2139C93.9185 12.9775 91.6102 10.3545 88.7622 10.3545H17.6042C14.7563 10.3545 12.448 12.9775 12.448 16.2139V74.3447H93.9185Z" fill="#EBC714"/>
<path d="M87.8779 74.3447V20.9385C87.8779 19.8594 87.1088 18.9854 86.1592 18.9854H20.2073C19.2577 18.9854 18.4885 19.8594 18.4885 20.9385V74.3457L87.8779 74.3447Z" fill="white"/>
<path d="M86.1592 18.9854H83.5811C84.5307 18.9854 85.2998 19.8594 85.2998 20.9385V74.3447H87.8779V20.9385C87.8779 19.8594 87.1088 18.9854 86.1592 18.9854Z" fill="white"/>
<path d="M3.85938 74.3447V78.1855C3.85938 81.3916 6.14703 83.9912 8.96836 83.9912H97.3963C100.219 83.9912 102.506 81.3916 102.506 78.1855V74.3447H3.85938Z" fill="#EBC714"/>
<path d="M3.85938 74.3447V78.1855C3.85938 81.3916 6.14703 83.9912 8.96836 83.9912H97.3963C100.219 83.9912 102.506 81.3916 102.506 78.1855V74.3447H3.85938Z" fill="#EBC714"/>
<path d="M36.8113 74.3447V76.2891C36.8113 77.9121 37.9689 79.2275 39.3971 79.2275H66.9685C68.3967 79.2275 69.5552 77.9111 69.5552 76.2891V74.3447H36.8113Z" fill="#FDF8E3"/>
<path d="M51.7403 42.1045H45.8888C45.4144 42.1045 45.0294 41.667 45.0294 41.1279C45.0294 40.5889 45.4144 40.1514 45.8888 40.1514H51.7403C52.2147 40.1514 52.5997 40.5889 52.5997 41.1279C52.5997 41.667 52.2147 42.1045 51.7403 42.1045Z" fill="#50CAE2"/>
<path d="M40.7326 42.1045H27.9855C27.5111 42.1045 27.1261 41.667 27.1261 41.1279C27.1261 40.5889 27.5111 40.1514 27.9855 40.1514H40.7326C41.207 40.1514 41.592 40.5889 41.592 41.1279C41.592 41.667 41.207 42.1045 40.7326 42.1045Z" fill="#50CAE2"/>
<path d="M68.7972 46.9873H58.3489C57.8745 46.9873 57.4895 47.4248 57.4895 47.9639C57.4895 48.5029 57.8745 48.9404 58.3489 48.9404H68.7972V46.9873Z" fill="#50CAE2"/>
<path d="M53.9094 48.9404H32.2823C31.808 48.9404 31.423 48.5029 31.423 47.9639C31.423 47.4248 31.808 46.9873 32.2823 46.9873H53.9094C54.3838 46.9873 54.7688 47.4248 54.7688 47.9639C54.7688 48.5029 54.3838 48.9404 53.9094 48.9404Z" fill="#50CAE2"/>
<path d="M68.7972 53.8232H48.1129C47.6385 53.8232 47.2535 54.2607 47.2535 54.7998C47.2535 55.3389 47.6385 55.7764 48.1129 55.7764H68.7972V53.8232Z" fill="#50CAE2"/>
<path d="M42.881 55.7764H32.2823C31.808 55.7764 31.423 55.3389 31.423 54.7998C31.423 54.2607 31.808 53.8232 32.2823 53.8232H42.881C43.3554 53.8232 43.7404 54.2607 43.7404 54.7998C43.7404 55.3389 43.3554 55.7764 42.881 55.7764Z" fill="#50CAE2"/>
<path d="M68.7972 60.6592H32.2823C31.808 60.6592 31.423 61.0967 31.423 61.6357C31.423 62.1748 31.808 62.6123 32.2823 62.6123H68.7972V60.6592Z" fill="#50CAE2"/>
<path d="M51.7403 69.4482H42.881C42.4066 69.4482 42.0216 69.0107 42.0216 68.4717C42.0216 67.9326 42.4066 67.4951 42.881 67.4951H51.7403C52.2147 67.4951 52.5997 67.9326 52.5997 68.4717C52.5997 69.0107 52.2147 69.4482 51.7403 69.4482Z" fill="#50CAE2"/>
<path d="M39.4435 69.4482H27.9855C27.5111 69.4482 27.1261 69.0107 27.1261 68.4717C27.1261 67.9326 27.5111 67.4951 27.9855 67.4951H39.4435C39.9179 67.4951 40.3029 67.9326 40.3029 68.4717C40.3029 69.0107 39.9179 69.4482 39.4435 69.4482Z" fill="#50CAE2"/>
<path d="M73.0941 109.762H98.9252C101.298 109.762 103.222 107.575 103.222 104.879V44.418C103.222 41.7217 101.298 39.5352 98.9252 39.5352H73.0941C70.7214 39.5352 68.7972 41.7217 68.7972 44.418V104.879C68.7972 107.576 70.7205 109.762 73.0941 109.762Z" fill="#EBC714"/>
<path d="M103.223 100.241L103.223 46.1938L68.7978 46.1938V100.241H103.223Z" fill="white"/>
<path d="M81.2736 43.6562H90.7448C91.0954 43.6562 91.3825 43.3301 91.3825 42.9316C91.3825 42.5332 91.0954 42.207 90.7448 42.207H81.2736C80.923 42.207 80.636 42.5332 80.636 42.9316C80.6368 43.3301 80.923 43.6562 81.2736 43.6562Z" fill="#242C2E"/>
<path d="M77.3867 42.9316C77.3867 43.3711 77.6995 43.7266 78.0862 43.7266C78.473 43.7266 78.7858 43.3711 78.7858 42.9316C78.7858 42.4922 78.473 42.1367 78.0862 42.1367C77.7004 42.1367 77.3867 42.4932 77.3867 42.9316Z" fill="#242C2E"/>
<path d="M82.9133 106.355H89.106C89.9576 106.355 90.6546 105.563 90.6546 104.596C90.6546 103.628 89.9576 102.836 89.106 102.836H82.9133C82.0617 102.836 81.3647 103.628 81.3647 104.596C81.3647 105.563 82.0617 106.355 82.9133 106.355Z" fill="#242C2E"/>
<path d="M22.8189 68.96C22.8189 68.96 21.1491 87.627 30.732 97.9316C40.7223 108.674 55.1074 104.72 55.1074 104.72V109.763L64.7229 99.8096L55.1074 89.8555V94.8984C55.1074 94.8984 45.6173 97.4141 36.7219 92.1943C27.9855 87.0674 22.8189 68.96 22.8189 68.96Z" fill="#50CAE2"/>
<path d="M97.4573 68.6123H92.4652C91.9908 68.6123 91.6058 68.1748 91.6058 67.6357C91.6058 67.0967 91.9908 66.6592 92.4652 66.6592H97.4573C97.9317 66.6592 98.3167 67.0967 98.3167 67.6357C98.3167 68.1748 97.9317 68.6123 97.4573 68.6123Z" fill="#50CAE2"/>
<path d="M87.309 68.6123H74.5619C74.0875 68.6123 73.7025 68.1748 73.7025 67.6357C73.7025 67.0967 74.0875 66.6592 74.5619 66.6592H87.309C87.7834 66.6592 88.1684 67.0967 88.1684 67.6357C88.1684 68.1748 87.7834 68.6123 87.309 68.6123Z" fill="#50CAE2"/>
<path d="M97.4574 75.4482H78.8588C78.3844 75.4482 77.9994 75.0107 77.9994 74.4717C77.9994 73.9326 78.3844 73.4951 78.8588 73.4951H97.4574C97.9317 73.4951 98.3167 73.9326 98.3167 74.4717C98.3167 75.0107 97.9317 75.4482 97.4574 75.4482Z" fill="#50CAE2"/>
<path d="M97.4574 82.2842H78.8588C78.3844 82.2842 77.9994 81.8467 77.9994 81.3076C77.9994 80.7686 78.3844 80.3311 78.8588 80.3311H97.4574C97.9317 80.3311 98.3167 80.7686 98.3167 81.3076C98.3167 81.8467 97.9317 82.2842 97.4574 82.2842Z" fill="#50CAE2"/>
<path d="M97.4574 89.1201H78.8588C78.3844 89.1201 77.9994 88.6826 77.9994 88.1436C77.9994 87.6045 78.3844 87.167 78.8588 87.167H97.4574C97.9317 87.167 98.3167 87.6045 98.3167 88.1436C98.3167 88.6826 97.9317 89.1201 97.4574 89.1201Z" fill="#50CAE2"/>
<path d="M97.4573 95.9561H89.4574C88.983 95.9561 88.598 95.5186 88.598 94.9795C88.598 94.4404 88.983 94.0029 89.4574 94.0029H97.4573C97.9317 94.0029 98.3167 94.4404 98.3167 94.9795C98.3167 95.5186 97.9317 95.9561 97.4573 95.9561Z" fill="#50CAE2"/>
<path d="M86.0199 95.9561H74.5619C74.0875 95.9561 73.7025 95.5186 73.7025 94.9795C73.7025 94.4404 74.0875 94.0029 74.5619 94.0029H86.0199C86.4943 94.0029 86.8793 94.4404 86.8793 94.9795C86.8793 95.5186 86.4943 95.9561 86.0199 95.9561Z" fill="#50CAE2"/>
<path d="M18.4877 60.1709C18.962 60.1709 19.347 59.7334 19.347 59.1943V49.7539C19.347 49.2148 18.962 48.7773 18.4877 48.7773C18.0133 48.7773 17.6283 49.2148 17.6283 49.7539V59.1943C17.6283 59.7334 18.0133 60.1709 18.4877 60.1709Z" fill="#3A2C60"/>
<path d="M36.2295 35.4521C36.3455 35.5126 36.4675 35.541 36.5878 35.541C36.9127 35.541 37.2246 35.33 37.369 34.9716L41.2551 25.3544C41.4528 24.8642 41.2646 24.2841 40.8332 24.0595C40.4035 23.8359 39.8921 24.0488 39.6936 24.539L35.8075 34.1562C35.609 34.6474 35.7981 35.2265 36.2295 35.4521Z" fill="#3A2C60"/>
<path d="M43.5076 35.2012C43.6777 35.4258 43.9175 35.541 44.159 35.541C44.3575 35.541 44.5569 35.4629 44.7193 35.3047L49.6375 30.4961C49.8274 30.3106 49.9365 30.041 49.9365 29.7559C49.9365 29.4717 49.8274 29.2012 49.6375 29.0157L44.7193 24.2071C44.3601 23.8555 43.8169 23.9014 43.5076 24.3096C43.1982 24.7178 43.2386 25.335 43.5978 25.6866L47.7589 29.7559L43.5978 33.8242C43.2386 34.1758 43.1982 34.792 43.5076 35.2012Z" fill="#3A2C60"/>
<path d="M32.3425 35.3047C32.5049 35.4639 32.7043 35.541 32.9028 35.541C33.1443 35.541 33.3849 35.4258 33.5542 35.2012C33.8636 34.792 33.8232 34.1758 33.464 33.8242L29.3029 29.7558L33.464 25.6865C33.8232 25.335 33.8645 24.7187 33.5542 24.3096C33.2449 23.9004 32.7026 23.8555 32.3425 24.207L27.4243 29.0156C27.2344 29.2012 27.1252 29.4717 27.1252 29.7558C27.1252 30.041 27.2344 30.3105 27.4243 30.4961L32.3425 35.3047Z" fill="#3A2C60"/>
<path d="M98.9251 38.5586H94.777V16.2148C94.777 12.4453 92.0785 9.37891 88.7613 9.37891H17.6051C14.2879 9.37891 11.5895 12.4453 11.5895 16.2148V73.3692H3.85938C3.385 73.3692 3 73.8067 3 74.3457V78.1865C3 81.9268 5.67781 84.9688 8.96836 84.9688H23.2804C24.4474 89.75 26.5159 94.7432 30.1408 98.6406C38.8841 108.041 50.6609 106.618 54.248 105.91V109.762C54.248 110.148 54.4491 110.499 54.7602 110.655C54.8719 110.712 54.9905 110.738 55.1073 110.738C55.317 110.738 55.5241 110.65 55.6857 110.483L65.3012 100.53C65.48 100.346 65.5823 100.083 65.5823 99.8086C65.5823 99.5342 65.48 99.2715 65.3012 99.0869L55.6866 89.1328C55.4348 88.8721 55.0713 88.8047 54.7602 88.9619C54.4491 89.1182 54.248 89.4688 54.248 89.8555V94.0889C51.9792 94.5195 44.2913 95.5371 37.1163 91.3262C34.8089 89.9727 32.749 87.6377 30.9752 84.9688H67.9378V104.88C67.9378 108.111 70.2504 110.739 73.0941 110.739H98.9251C101.769 110.739 104.081 108.111 104.081 104.88V44.418C104.081 41.1875 101.769 38.5586 98.9251 38.5586ZM69.6566 47.1699H102.363V99.2637H69.6566V47.1699ZM102.363 44.418V45.2168H69.6566V44.418C69.6566 42.2637 71.1983 40.5117 73.0941 40.5117H98.9251C100.821 40.5117 102.363 42.2647 102.363 44.418ZM13.3082 16.2148C13.3082 13.5225 15.2358 11.332 17.6051 11.332H88.7622C91.1315 11.332 93.0591 13.5225 93.0591 16.2148V38.5596H88.7381V20.9385C88.7381 19.3232 87.5814 18.0088 86.16 18.0088H20.2064C18.785 18.0088 17.6283 19.3232 17.6283 20.9385V45.1973C17.6283 45.7363 18.0133 46.1738 18.4877 46.1738C18.962 46.1738 19.347 45.7363 19.347 45.1973V20.9385C19.347 20.4004 19.7329 19.9619 20.2064 19.9619H86.1591C86.6327 19.9619 87.0185 20.4004 87.0185 20.9385V38.5586H73.0941C70.2504 38.5586 67.9378 41.1865 67.9378 44.418V73.3682H25.2449C24.2128 70.6406 23.6525 68.7168 23.6362 68.6582C23.5107 68.2188 23.1326 67.9365 22.7278 67.9883C22.3239 68.0371 22.0051 68.4004 21.9638 68.8604C21.9432 69.0859 21.8023 70.7998 21.847 73.3672H19.3479V63.4258C19.3479 62.8867 18.9629 62.4492 18.4885 62.4492C18.0141 62.4492 17.6291 62.8867 17.6291 63.4258V73.3682H13.3082V16.2148ZM8.96836 83.0156C6.62484 83.0156 4.71875 80.8496 4.71875 78.1865V75.3223H21.9148C22.0291 77.5645 22.2973 80.2188 22.8516 83.0156H8.96836ZM36.3283 93.0615C45.3998 98.3857 54.9028 95.9551 55.3033 95.8486C55.6926 95.7461 55.9676 95.3516 55.9676 94.8975V92.0655L63.4476 99.8086L55.9676 107.552V104.72C55.9676 104.42 55.8464 104.138 55.6402 103.952C55.4872 103.815 55.2998 103.743 55.1082 103.743C55.0403 103.743 54.9733 103.752 54.9062 103.771C54.7662 103.81 40.8649 107.481 31.3233 97.2217C25.1435 90.5772 23.8141 80.1592 23.607 74.0303C25.7992 79.8819 30.1666 89.4463 36.3283 93.0615ZM29.7566 83.0156C28.2459 80.4365 26.9895 77.7051 26.0141 75.3223H67.9378V83.0156H29.7566ZM98.9251 108.785H73.0941C71.1983 108.785 69.6566 107.033 69.6566 104.879V101.217H102.363V104.879C102.363 107.033 100.821 108.785 98.9251 108.785Z" fill="#3A2C60"/>
<path d="M87.4096 50.5674C86.979 50.3438 86.4677 50.5567 86.27 51.0469L82.3839 60.6641C82.1863 61.1544 82.3745 61.7344 82.8059 61.9591C82.9219 62.0196 83.0439 62.0479 83.1643 62.0479C83.4891 62.0479 83.801 61.837 83.9454 61.4786L87.8315 51.8614C88.03 51.3721 87.841 50.793 87.4096 50.5674Z" fill="#3A2C60"/>
<path d="M96.2139 55.5235L91.2957 50.7149C90.9356 50.3633 90.3933 50.4092 90.084 50.8174C89.7746 51.2266 89.815 51.8428 90.1742 52.1944L94.3353 56.2627L90.1742 60.3321C89.815 60.6836 89.7737 61.2998 90.084 61.709C90.2541 61.9336 90.4939 62.0489 90.7354 62.0489C90.9339 62.0489 91.1332 61.9707 91.2957 61.8125L96.2139 57.0039C96.4038 56.8184 96.5129 56.5479 96.5129 56.2637C96.5129 55.9785 96.4038 55.709 96.2139 55.5235Z" fill="#3A2C60"/>
<path d="M80.1315 50.8184C79.8221 50.4102 79.2799 50.3633 78.9198 50.7159L74.0016 55.5245C73.8117 55.71 73.7025 55.9796 73.7025 56.2647C73.7025 56.5489 73.8117 56.8194 74.0016 57.0049L78.9198 61.8135C79.0822 61.9727 79.2816 62.0499 79.4801 62.0499C79.7216 62.0499 79.9622 61.9346 80.1315 61.71C80.4409 61.3008 80.4005 60.6846 80.0413 60.3331L75.8802 56.2637L80.0413 52.1954C80.4005 51.8438 80.4409 51.2276 80.1315 50.8184Z" fill="#3A2C60"/>
</svg>
