<svg width="128" height="128" viewBox="0 0 128 128" fill="none" xmlns="http://www.w3.org/2000/svg">
<path d="M115 15.911H16C11.038 15.911 7 19.948 7 24.911V106.09C7 111.053 11.038 115.09 16 115.09H115C119.962 115.09 124 111.053 124 106.09V24.911C124 19.948 119.962 15.911 115 15.911Z" fill="#E6E7E8"/>
<path d="M111 110.089H12C7.582 110.089 4 106.507 4 102.089V20.91C4 16.492 7.582 12.91 12 12.91H111C115.418 12.91 119 16.492 119 20.91V102.089C119 106.508 115.418 110.089 111 110.089Z" fill="#EBC714"/>
<path d="M105 102.089H18C14.686 102.089 12 99.403 12 96.089V26.911C12 23.597 14.686 20.911 18 20.911H105C108.314 20.911 111 23.597 111 26.911V96.09C111 99.403 108.314 102.089 105 102.089Z" fill="#FBF4D0"/>
<path d="M105 20.911H18C14.686 20.911 12 23.597 12 26.911V29.911C12 26.597 14.686 23.911 18 23.911H105C108.314 23.911 111 26.597 111 29.911V26.911C111 23.597 108.314 20.911 105 20.911Z" fill="white"/>
<path d="M97.02 66.466L82.008 78.639L44.766 51.131C44.082 50.625 43.145 50.634 42.47 51.151L19 69.128V92.047C19 93.704 20.343 95.047 22 95.047H101C102.657 95.047 104 93.704 104 92.047V69.74L99.336 66.397C98.637 65.896 97.689 65.924 97.02 66.466Z" fill="#50CAE2"/>
<path d="M81.374 54.751C86.6726 54.751 90.968 50.4556 90.968 45.157C90.968 39.8584 86.6726 35.563 81.374 35.563C76.0754 35.563 71.78 39.8584 71.78 45.157C71.78 50.4556 76.0754 54.751 81.374 54.751Z" fill="#EBC714"/>
<path d="M111 11.91H12C7.038 11.91 3 15.947 3 20.91V102.089C3 107.052 7.038 111.089 12 111.089H111C115.962 111.089 120 107.052 120 102.089V20.91C120 15.947 115.962 11.91 111 11.91ZM118 102.089C118 105.948 114.86 109.089 111 109.089H12C8.14 109.089 5 105.948 5 102.089V20.91C5 17.051 8.14 13.91 12 13.91H111C114.86 13.91 118 17.051 118 20.91V102.089Z" fill="#3A2C60"/>
<path d="M105 19.91H18C14.14 19.91 11 23.051 11 26.91V96.089C11 99.948 14.14 103.089 18 103.089H105C108.86 103.089 112 99.948 112 96.089V59.25C112 58.697 111.552 58.25 111 58.25C110.448 58.25 110 58.697 110 59.25V96.089C110 98.846 107.757 101.089 105 101.089H18C15.243 101.089 13 98.846 13 96.089V26.91C13 24.153 15.243 21.91 18 21.91H105C107.757 21.91 110 24.153 110 26.91V42.023C110 42.576 110.448 43.023 111 43.023C111.552 43.023 112 42.576 112 42.023V26.91C112 23.051 108.86 19.91 105 19.91Z" fill="#3A2C60"/>
<path d="M111 45.375C110.448 45.375 110 45.822 110 46.375V54.751C110 55.304 110.448 55.751 111 55.751C111.552 55.751 112 55.304 112 54.751V46.375C112 45.822 111.552 45.375 111 45.375Z" fill="#3A2C60"/>
<path d="M41.862 50.3571L18.392 68.3341C18.145 68.5231 18 68.8161 18 69.1281V92.0471C18 94.2531 19.794 96.0471 22 96.0471H101C103.206 96.0471 105 94.2531 105 92.0471V69.7401C105 69.4181 104.845 69.1151 104.583 68.9271L99.919 65.5841C98.855 64.8201 97.405 64.8641 96.391 65.6891L81.979 77.3741L45.36 50.3261C44.324 49.5621 42.885 49.5741 41.862 50.3571ZM82.637 79.4151L97.65 67.2431C97.968 66.9861 98.423 66.9721 98.754 67.2101L103 70.2541V92.0471C103 93.1501 102.103 94.0471 101 94.0471H22C20.897 94.0471 20 93.1501 20 92.0471V69.6221L43.078 51.9451C43.398 51.7001 43.848 51.6951 44.172 51.9351L81.413 79.4431C81.78 79.7131 82.283 79.7021 82.637 79.4151Z" fill="#3A2C60"/>
<path d="M91.968 45.156C91.968 39.314 87.216 34.562 81.374 34.562C75.532 34.562 70.78 39.314 70.78 45.156C70.78 50.998 75.532 55.751 81.374 55.751C87.216 55.751 91.968 50.998 91.968 45.156ZM72.779 45.156C72.779 40.418 76.634 36.562 81.373 36.562C86.112 36.562 89.967 40.417 89.967 45.156C89.967 49.895 86.112 53.751 81.373 53.751C76.634 53.751 72.779 49.896 72.779 45.156Z" fill="#3A2C60"/>
</svg>
