<svg width="128" height="128" viewBox="0 0 128 128" fill="none" xmlns="http://www.w3.org/2000/svg">
<path d="M118.837 13.651H12.163C9.40596 13.651 7.16296 15.894 7.16296 18.651V112.349C7.16296 115.106 9.40596 117.349 12.163 117.349H118.838C121.595 117.349 123.838 115.106 123.838 112.349V18.651C123.837 15.894 121.594 13.651 118.837 13.651Z" fill="#E6E7E8"/>
<path d="M118.837 28.663H4.16296V108.35C4.16296 110.559 5.95396 112.35 8.16296 112.35H114.838C117.047 112.35 118.838 110.559 118.838 108.35V28.663H118.837Z" fill="#EBC714"/>
<path d="M43.745 72.5H36.936C36.384 72.5 35.936 72.052 35.936 71.5C35.936 70.948 36.384 70.5 36.936 70.5H43.745C44.297 70.5 44.745 70.948 44.745 71.5C44.745 72.052 44.297 72.5 43.745 72.5Z" fill="#3A3F41"/>
<path d="M30.936 72.5H14.104C13.552 72.5 13.104 72.052 13.104 71.5C13.104 70.948 13.552 70.5 14.104 70.5H30.937C31.489 70.5 31.937 70.948 31.937 71.5C31.937 72.052 31.488 72.5 30.936 72.5Z" fill="#3A3F41"/>
<path d="M71.7451 79.5H53.4351C52.8831 79.5 52.4351 79.052 52.4351 78.5C52.4351 77.948 52.8831 77.5 53.4351 77.5H71.7461C72.2981 77.5 72.7461 77.948 72.7461 78.5C72.7461 79.052 72.2971 79.5 71.7451 79.5Z" fill="#3A3F41"/>
<path d="M46.27 79.5H21.104C20.552 79.5 20.104 79.052 20.104 78.5C20.104 77.948 20.552 77.5 21.104 77.5H46.27C46.822 77.5 47.27 77.948 47.27 78.5C47.27 79.052 46.822 79.5 46.27 79.5Z" fill="#3A3F41"/>
<path d="M78.745 86.5H39.5229C38.9709 86.5 38.5229 86.052 38.5229 85.5C38.5229 84.948 38.9709 84.5 39.5229 84.5H78.745C79.297 84.5 79.745 84.948 79.745 85.5C79.745 86.052 79.297 86.5 78.745 86.5Z" fill="#3A3F41"/>
<path d="M33.436 86.5H21.104C20.552 86.5 20.104 86.052 20.104 85.5C20.104 84.948 20.552 84.5 21.104 84.5H33.437C33.989 84.5 34.437 84.948 34.437 85.5C34.437 86.052 33.988 86.5 33.436 86.5Z" fill="#3A3F41"/>
<path d="M78.745 93.5H21.104C20.552 93.5 20.104 93.052 20.104 92.5C20.104 91.948 20.552 91.5 21.104 91.5H78.746C79.298 91.5 79.746 91.948 79.746 92.5C79.746 93.052 79.297 93.5 78.745 93.5Z" fill="#3A3F41"/>
<path d="M43.745 100.5H33.436C32.884 100.5 32.436 100.052 32.436 99.5C32.436 98.948 32.884 98.5 33.436 98.5H43.745C44.297 98.5 44.745 98.948 44.745 99.5C44.745 100.052 44.297 100.5 43.745 100.5Z" fill="#3A3F41"/>
<path d="M29.436 100.5H14.104C13.552 100.5 13.104 100.052 13.104 99.5C13.104 98.948 13.552 98.5 14.104 98.5H29.437C29.989 98.5 30.437 98.948 30.437 99.5C30.437 100.052 29.988 100.5 29.436 100.5Z" fill="#3A3F41"/>
<path d="M114.837 109.349H8.16296C5.95396 109.349 4.16296 107.558 4.16296 105.349V108.349C4.16296 110.558 5.95396 112.349 8.16296 112.349H114.838C117.047 112.349 118.838 110.558 118.838 108.349V105.349C118.837 107.559 117.047 109.349 114.837 109.349Z" fill="white"/>
<path d="M114.837 10.651H8.16296C5.95396 10.651 4.16296 12.442 4.16296 14.651V28.663H118.838V14.651C118.837 12.442 117.047 10.651 114.837 10.651Z" fill="#50CAE2"/>
<path d="M39.7809 23.336C41.5797 23.336 43.0379 21.8778 43.0379 20.079C43.0379 18.2802 41.5797 16.822 39.7809 16.822C37.9821 16.822 36.5239 18.2802 36.5239 20.079C36.5239 21.8778 37.9821 23.336 39.7809 23.336Z" fill="white"/>
<path d="M27.95 23.336C29.7488 23.336 31.207 21.8778 31.207 20.079C31.207 18.2802 29.7488 16.822 27.95 16.822C26.1512 16.822 24.693 18.2802 24.693 20.079C24.693 21.8778 26.1512 23.336 27.95 23.336Z" fill="#D4FBFF"/>
<path d="M16.118 23.336C17.9168 23.336 19.375 21.8778 19.375 20.079C19.375 18.2802 17.9168 16.822 16.118 16.822C14.3192 16.822 12.861 18.2802 12.861 20.079C12.861 21.8778 14.3192 23.336 16.118 23.336Z" fill="#EBC714"/>
<path d="M94.927 79.234H85.866L79.35 74.778C77.048 73.204 75.672 70.596 75.672 67.808V53.656H105.121V67.808C105.121 70.596 103.745 73.205 101.443 74.778L94.927 79.234Z" fill="#50CAE2"/>
<path d="M99.091 59.37H81.703C81.149 59.37 80.7 58.921 80.7 58.367C80.7 57.813 81.149 57.364 81.703 57.364H99.091C99.645 57.364 100.094 57.813 100.094 58.367C100.093 58.921 99.644 59.37 99.091 59.37Z" fill="white"/>
<path d="M99.091 63.254H81.703C81.149 63.254 80.7 62.805 80.7 62.251C80.7 61.697 81.149 61.248 81.703 61.248H99.091C99.645 61.248 100.094 61.697 100.094 62.251C100.093 62.805 99.644 63.254 99.091 63.254Z" fill="white"/>
<path d="M99.091 67.138H81.703C81.149 67.138 80.7 66.689 80.7 66.135C80.7 65.581 81.149 65.132 81.703 65.132H99.091C99.645 65.132 100.094 65.581 100.094 66.135C100.093 66.689 99.644 67.138 99.091 67.138Z" fill="white"/>
<path d="M105.876 53.656H74.917C73.249 53.656 71.897 52.304 71.897 50.636C71.897 48.968 73.249 47.616 74.917 47.616H105.876C107.544 47.616 108.896 48.968 108.896 50.636C108.897 52.304 107.544 53.656 105.876 53.656Z" fill="#50CAE2"/>
<path d="M94.927 79.234H85.866V99.501H94.927V79.234Z" fill="white"/>
<path d="M84.686 47.615H80.25V39.734C80.25 38.509 81.243 37.516 82.468 37.516C83.693 37.516 84.686 38.509 84.686 39.734V47.615Z" fill="white"/>
<path d="M100.543 47.615H96.1069V39.734C96.1069 38.509 97.0999 37.516 98.3249 37.516C99.5499 37.516 100.543 38.509 100.543 39.734V47.615Z" fill="white"/>
<path d="M48.3749 45.149C48.9269 45.149 49.3749 44.701 49.3749 44.149V41.618C49.3749 41.066 48.9269 40.618 48.3749 40.618H30.3149C29.7629 40.618 29.3149 41.066 29.3149 41.618V44.149C29.3149 44.701 29.7629 45.149 30.3149 45.149C30.8669 45.149 31.3149 44.701 31.3149 44.149V42.618H38.3449V58.891H35.3149C34.7629 58.891 34.3149 59.339 34.3149 59.891C34.3149 60.443 34.7629 60.891 35.3149 60.891H43.3759C43.9279 60.891 44.3759 60.443 44.3759 59.891C44.3759 59.339 43.9279 58.891 43.3759 58.891H40.3459V42.618H47.3759V44.149C47.3749 44.702 47.8229 45.149 48.3749 45.149Z" fill="#3A2C60"/>
<path d="M53.346 60.428C53.544 60.658 53.823 60.776 54.104 60.776C54.335 60.776 54.567 60.696 54.756 60.534L65.239 51.513C65.46 51.323 65.587 51.046 65.587 50.755C65.587 50.464 65.46 50.187 65.239 49.997L54.756 40.976C54.338 40.616 53.705 40.663 53.346 41.081C52.986 41.5 53.033 42.131 53.451 42.491L63.054 50.754L53.451 59.017C53.033 59.378 52.985 60.009 53.346 60.428Z" fill="#3A2C60"/>
<path d="M25.345 41.0821C24.985 40.6641 24.354 40.6161 23.935 40.9771L13.452 49.9981C13.231 50.1881 13.104 50.4651 13.104 50.7561C13.104 51.0471 13.231 51.3241 13.452 51.5141L23.935 60.5351C24.124 60.6981 24.356 60.7771 24.587 60.7771C24.868 60.7771 25.148 60.6591 25.345 60.4291C25.705 60.0101 25.658 59.3791 25.24 59.0191L15.637 50.7561L25.24 42.4931C25.658 42.1321 25.705 41.5001 25.345 41.0821Z" fill="#3A2C60"/>
<path d="M118.837 56.913C118.285 56.913 117.837 57.361 117.837 57.913V70.166C117.837 70.718 118.285 71.166 118.837 71.166C119.389 71.166 119.837 70.718 119.837 70.166V57.913C119.837 57.36 119.39 56.913 118.837 56.913Z" fill="#3A2C60"/>
<path d="M114.837 9.651H8.16296C5.40596 9.651 3.16296 11.894 3.16296 14.651V108.35C3.16296 111.107 5.40596 113.35 8.16296 113.35H114.838C117.595 113.35 119.838 111.107 119.838 108.35V74.83C119.838 74.278 119.39 73.83 118.838 73.83C118.286 73.83 117.838 74.278 117.838 74.83V108.35C117.838 110.004 116.492 111.35 114.838 111.35H8.16296C6.50896 111.35 5.16296 110.004 5.16296 108.35V29.663H117.838V52.913C117.838 53.465 118.286 53.913 118.838 53.913C119.39 53.913 119.838 53.465 119.838 52.913V14.651C119.837 11.894 117.594 9.651 114.837 9.651ZM5.16296 14.651C5.16296 12.997 6.50896 11.651 8.16296 11.651H114.838C116.492 11.651 117.838 12.997 117.838 14.651V27.663H5.16296V14.651Z" fill="#3A2C60"/>
<path d="M85.866 100.5H94.927C95.479 100.5 95.927 100.052 95.927 99.5V79.762L102.008 75.604C104.584 73.843 106.121 70.929 106.121 67.808V54.631C108.222 54.502 109.897 52.769 109.897 50.636C109.897 48.419 108.093 46.615 105.876 46.615H101.543V39.734C101.543 37.96 100.099 36.516 98.325 36.516C96.551 36.516 95.107 37.96 95.107 39.734V46.615H85.686V39.734C85.686 37.96 84.242 36.516 82.468 36.516C80.694 36.516 79.25 37.96 79.25 39.734V46.615H74.917C72.7 46.615 70.897 48.419 70.897 50.636C70.897 52.769 72.571 54.502 74.672 54.631V67.808C74.672 70.928 76.21 73.842 78.785 75.604L84.866 79.762V99.5C84.866 100.053 85.314 100.5 85.866 100.5ZM93.927 98.5H86.866V80.234H93.927V98.5ZM97.107 39.734C97.107 39.062 97.653 38.516 98.325 38.516C98.997 38.516 99.543 39.062 99.543 39.734V46.615H97.107V39.734ZM81.25 39.734C81.25 39.062 81.796 38.516 82.468 38.516C83.14 38.516 83.686 39.062 83.686 39.734V46.615H81.25V39.734ZM72.897 50.636C72.897 49.522 73.803 48.615 74.917 48.615H105.876C106.99 48.615 107.897 49.521 107.897 50.636C107.897 51.75 106.991 52.656 105.876 52.656H74.917C73.803 52.656 72.897 51.75 72.897 50.636ZM76.672 67.808V54.656H104.121V67.808C104.121 70.267 102.909 72.565 100.879 73.953L94.618 78.234H86.175L79.914 73.953C77.884 72.564 76.672 70.268 76.672 67.808Z" fill="#3A2C60"/>
</svg>
