<svg width="144" height="135" viewBox="0 0 144 135" fill="none" xmlns="http://www.w3.org/2000/svg">
<path d="M118.451 82.5374H111.463V27.1335C111.463 26.8587 111.352 26.5963 111.153 26.4031L92.764 8.45991C92.5661 8.2657 92.2972 8.15723 92.0157 8.15723H21.1524C19.4017 8.15723 17.9771 9.54772 17.9771 11.2564V125.926C17.9771 127.634 19.4017 129.025 21.1524 129.025H108.287C110.038 129.025 111.463 127.634 111.463 125.926V119.211H118.451C121.369 119.211 123.743 116.894 123.743 114.046V87.7027C123.743 84.8545 121.369 82.5374 118.451 82.5374Z" fill="#E6E7E8"/>
<path d="M87.7817 5.05798H16.9184C15.7488 5.05798 14.8015 5.98257 14.8015 7.1241V121.794C14.8015 122.935 15.7488 123.86 16.9184 123.86H104.053C105.223 123.86 106.17 122.935 106.17 121.794V23.0012L87.7817 5.05798Z" fill="#EBC714"/>
<path d="M87.7817 5.05798H16.9184C15.7488 5.05798 14.8015 5.9836 14.8015 7.1241V10.2233C14.8015 9.08174 15.7488 8.15716 16.9184 8.15716H87.7817V5.05798Z" fill="white"/>
<path d="M87.7815 20.9371V5.05798L106.17 23.0012L89.8984 23.0032C88.7299 23.0032 87.7815 22.0776 87.7815 20.9371Z" fill="#EBC714"/>
<path d="M114.217 114.046H33.2444C30.9062 114.046 29.0105 112.195 29.0105 109.913V83.5703C29.0105 81.2883 30.9062 79.4381 33.2444 79.4381H114.217C116.555 79.4381 118.451 81.2883 118.451 83.5703V109.913C118.451 112.195 116.555 114.046 114.217 114.046Z" fill="#FBF4D0"/>
<path d="M14.8016 41.4732C15.3859 41.4732 15.8601 41.0114 15.8601 40.4401V28.0744C15.8601 27.5032 15.3859 27.0414 14.8016 27.0414C14.2174 27.0414 13.7432 27.5032 13.7432 28.0744V40.4401C13.7432 41.0114 14.2174 41.4732 14.8016 41.4732Z" fill="#3A2C60"/>
<path d="M114.217 78.4051H107.229V23.0011C107.229 22.7263 107.118 22.464 106.919 22.2708L88.5301 4.32759C88.3322 4.13337 88.0633 4.0249 87.7818 4.0249H16.9186C15.1679 4.0249 13.7432 5.4154 13.7432 7.12408V22.8782C13.7432 23.4495 14.2174 23.9113 14.8016 23.9113C15.3859 23.9113 15.8601 23.4495 15.8601 22.8782V7.12408C15.8601 6.55383 16.3353 6.09102 16.9186 6.09102H86.7233V20.9371C86.7233 22.6458 88.148 24.0363 89.8987 24.0363L105.112 24.0342V78.4051H33.2433C30.3251 78.4051 27.9509 80.7222 27.9509 83.5704V109.913C27.9509 112.761 30.3251 115.079 33.2433 115.079H105.112V121.793C105.112 122.364 104.638 122.827 104.054 122.827H16.9186C16.3353 122.827 15.8601 122.364 15.8601 121.793V45.6055C15.8601 45.0342 15.3859 44.5724 14.8016 44.5724C14.2174 44.5724 13.7432 45.0342 13.7432 45.6055V121.793C13.7432 123.502 15.1679 124.893 16.9186 124.893H104.054C105.804 124.893 107.229 123.502 107.229 121.793V115.079H114.217C117.135 115.079 119.509 112.761 119.509 109.913V83.5704C119.509 80.7222 117.135 78.4051 114.217 78.4051ZM88.8402 20.9371V7.55176L103.615 21.9691L89.8987 21.9712C89.3155 21.9701 88.8402 21.5073 88.8402 20.9371ZM117.392 109.913C117.392 111.622 115.968 113.013 114.217 113.013H33.2443C31.4936 113.013 30.0689 111.622 30.0689 109.913V83.5704C30.0689 81.8617 31.4936 80.4712 33.2443 80.4712H114.217C115.968 80.4712 117.392 81.8617 117.392 83.5704V109.913Z" fill="#3A2C60"/>
<path d="M53.1962 87.9608C52.6119 87.9608 52.1377 88.4226 52.1377 88.9939V95.7087H41.8642V88.9939C41.8642 88.4226 41.3901 87.9608 40.8058 87.9608C40.2215 87.9608 39.7473 88.4226 39.7473 88.9939V104.49C39.7473 105.061 40.2215 105.523 40.8058 105.523C41.3901 105.523 41.8642 105.061 41.8642 104.49V97.7749H52.1377V104.49C52.1377 105.061 52.6119 105.523 53.1962 105.523C53.7805 105.523 54.2547 105.061 54.2547 104.49V88.9939C54.2547 88.4226 53.7805 87.9608 53.1962 87.9608Z" fill="#3A2C60"/>
<path d="M107.555 103.457H99.5911V88.9939C99.5911 88.4226 99.1179 87.9608 98.5326 87.9608C97.9473 87.9608 97.4741 88.4226 97.4741 88.9939V104.49C97.4741 105.061 97.9473 105.523 98.5326 105.523H107.555C108.14 105.523 108.613 105.061 108.613 104.49C108.613 103.918 108.14 103.457 107.555 103.457Z" fill="#3A2C60"/>
<path d="M73.7761 87.9608H58.0843C57.5001 87.9608 57.0259 88.4226 57.0259 88.9939C57.0259 89.5652 57.5001 90.0269 58.0843 90.0269H64.8723V104.49C64.8723 105.061 65.3465 105.523 65.9307 105.523C66.515 105.523 66.9892 105.061 66.9892 104.49V90.0269H73.7761C74.3614 90.0269 74.8346 89.5652 74.8346 88.9939C74.8346 88.4226 74.3614 87.9608 73.7761 87.9608Z" fill="#3A2C60"/>
<path d="M92.9356 87.9909C92.4657 87.8793 91.9714 88.0942 91.7448 88.5157L85.6047 99.9847L79.4624 88.5157C79.2359 88.0931 78.7416 87.8772 78.2716 87.9909C77.7985 88.1035 77.4651 88.5188 77.4651 88.994V104.49C77.4651 105.061 77.9382 105.523 78.5236 105.523C79.1089 105.523 79.582 105.061 79.582 104.49V93.2006L84.6669 102.692C85.031 103.374 86.1773 103.374 86.5425 102.692L91.6252 93.2006V104.49C91.6252 105.061 92.0984 105.523 92.6837 105.523C93.269 105.523 93.7422 105.061 93.7422 104.49V88.994C93.7422 88.5188 93.4098 88.1045 92.9356 87.9909Z" fill="#3A2C60"/>
<path d="M29.0094 29.1075H70.7923C71.3777 29.1075 71.8508 28.6457 71.8508 28.0744C71.8508 27.5032 71.3777 27.0414 70.7923 27.0414H29.0094C28.4251 27.0414 27.9509 27.5032 27.9509 28.0744C27.9509 28.6457 28.4251 29.1075 29.0094 29.1075Z" fill="#3A2C60"/>
<path d="M29.0094 39.4381H91.9617C92.547 39.4381 93.0201 38.9763 93.0201 38.405C93.0201 37.8337 92.547 37.3719 91.9617 37.3719H29.0094C28.4251 37.3719 27.9509 37.8337 27.9509 38.405C27.9509 38.9763 28.4251 39.4381 29.0094 39.4381Z" fill="#3A2C60"/>
<path d="M29.0094 49.7686H91.9617C92.547 49.7686 93.0201 49.3068 93.0201 48.7356C93.0201 48.1643 92.547 47.7025 91.9617 47.7025H29.0094C28.4251 47.7025 27.9509 48.1643 27.9509 48.7356C27.9509 49.3068 28.4251 49.7686 29.0094 49.7686Z" fill="#3A2C60"/>
<path d="M29.0094 60.0993H91.9617C92.547 60.0993 93.0201 59.6375 93.0201 59.0663C93.0201 58.495 92.547 58.0332 91.9617 58.0332H29.0094C28.4251 58.0332 27.9509 58.495 27.9509 59.0663C27.9509 59.6375 28.4251 60.0993 29.0094 60.0993Z" fill="#3A2C60"/>
<path d="M29.0094 70.4298H91.9617C92.547 70.4298 93.0201 69.968 93.0201 69.3967C93.0201 68.8254 92.547 68.3636 91.9617 68.3636H29.0094C28.4251 68.3636 27.9509 68.8254 27.9509 69.3967C27.9509 69.968 28.4251 70.4298 29.0094 70.4298Z" fill="#3A2C60"/>
</svg>
