<svg width="113" height="125" viewBox="0 0 113 125" fill="none" xmlns="http://www.w3.org/2000/svg">
<g clip-path="url(#clip0_32:254)">
<path d="M110.708 78.5124H103.72V23.1084C103.72 22.8336 103.609 22.5713 103.41 22.3781L85.0208 4.43489C84.8229 4.24067 84.554 4.1322 84.2725 4.1322H13.4093C11.6586 4.1322 10.2339 5.5227 10.2339 7.23138V121.901C10.2339 123.609 11.6586 125 13.4093 125H100.544C102.295 125 103.72 123.609 103.72 121.901V115.186H110.708C113.626 115.186 116 112.869 116 110.021V83.6777C116 80.8295 113.626 78.5124 110.708 78.5124Z" fill="#E6E7E8"/>
<path d="M80.0386 1.03308H9.1754C8.0058 1.03308 7.05847 1.95767 7.05847 3.0992V117.769C7.05847 118.91 8.0058 119.835 9.1754 119.835H96.3104C97.48 119.835 98.4273 118.91 98.4273 117.769V18.9763L80.0386 1.03308Z" fill="#EBC714"/>
<path d="M80.0386 1.03308H9.1754C8.0058 1.03308 7.05847 1.9587 7.05847 3.0992V6.19837C7.05847 5.05684 8.0058 4.13225 9.1754 4.13225H80.0386V1.03308Z" fill="white"/>
<path d="M80.0386 16.9122V1.03308L98.4273 18.9763L82.1555 18.9783C80.987 18.9783 80.0386 18.0527 80.0386 16.9122Z" fill="#EBC714"/>
<path d="M106.474 110.021H25.5011C23.1629 110.021 21.2672 108.17 21.2672 105.888V79.5454C21.2672 77.2634 23.1629 75.4132 25.5011 75.4132H106.474C108.812 75.4132 110.708 77.2634 110.708 79.5454V105.888C110.708 108.17 108.812 110.021 106.474 110.021Z" fill="#FBF4D0"/>
<path d="M7.05847 37.4483C7.6438 37.4483 8.11693 36.9865 8.11693 36.4152V24.0495C8.11693 23.4783 7.6438 23.0165 7.05847 23.0165C6.47313 23.0165 6 23.4783 6 24.0495V36.4152C6 36.9865 6.47313 37.4483 7.05847 37.4483Z" fill="#3A2C60"/>
<path d="M106.474 74.3802H99.4858V18.9762C99.4858 18.7014 99.3747 18.439 99.1757 18.2459L80.7869 0.302686C80.589 0.108471 80.3202 0 80.0386 0H9.1754C7.42469 0 6 1.3905 6 3.09917V18.8533C6 19.4246 6.47313 19.8864 7.05847 19.8864C7.6438 19.8864 8.11693 19.4246 8.11693 18.8533V3.09917C8.11693 2.52893 8.59112 2.06612 9.1754 2.06612H78.9801V16.9122C78.9801 18.6209 80.4048 20.0114 82.1555 20.0114L97.3689 20.0093V74.3802H25.5012C22.583 74.3802 20.2088 76.6973 20.2088 79.5454V105.888C20.2088 108.737 22.583 111.054 25.5012 111.054H97.3689V117.769C97.3689 118.339 96.8947 118.802 96.3104 118.802H9.1754C8.59112 118.802 8.11693 118.339 8.11693 117.769V41.5806C8.11693 41.0093 7.6438 40.5475 7.05847 40.5475C6.47313 40.5475 6 41.0093 6 41.5806V117.769C6 119.477 7.42469 120.868 9.1754 120.868H96.3104C98.0611 120.868 99.4858 119.477 99.4858 117.769V111.054H106.474C109.392 111.054 111.766 108.737 111.766 105.888V79.5454C111.766 76.6973 109.392 74.3802 106.474 74.3802ZM81.0971 16.9122V3.52686L95.8722 17.9442L82.1555 17.9463C81.5723 17.9452 81.0971 17.4824 81.0971 16.9122ZM109.649 105.888C109.649 107.597 108.224 108.988 106.474 108.988H25.5012C23.7505 108.988 22.3258 107.597 22.3258 105.888V79.5454C22.3258 77.8368 23.7505 76.4463 25.5012 76.4463H106.474C108.224 76.4463 109.649 77.8368 109.649 79.5454V105.888Z" fill="#3A2C60"/>
<path d="M21.2672 25.0826H63.0501C63.6355 25.0826 64.1086 24.6208 64.1086 24.0495C64.1086 23.4783 63.6355 23.0165 63.0501 23.0165H21.2672C20.6819 23.0165 20.2087 23.4783 20.2087 24.0495C20.2087 24.6208 20.6819 25.0826 21.2672 25.0826Z" fill="#3A2C60"/>
<path d="M21.2672 35.4133H84.2194C84.8048 35.4133 85.2779 34.9515 85.2779 34.3802C85.2779 33.8089 84.8048 33.3472 84.2194 33.3472H21.2672C20.6819 33.3472 20.2087 33.8089 20.2087 34.3802C20.2087 34.9515 20.6819 35.4133 21.2672 35.4133Z" fill="#3A2C60"/>
<path d="M21.2672 45.7438H84.2194C84.8048 45.7438 85.2779 45.2821 85.2779 44.7108C85.2779 44.1395 84.8048 43.6777 84.2194 43.6777H21.2672C20.6819 43.6777 20.2087 44.1395 20.2087 44.7108C20.2087 45.2821 20.6819 45.7438 21.2672 45.7438Z" fill="#3A2C60"/>
<path d="M21.2672 56.0744H84.2194C84.8048 56.0744 85.2779 55.6126 85.2779 55.0414C85.2779 54.4701 84.8048 54.0083 84.2194 54.0083H21.2672C20.6819 54.0083 20.2087 54.4701 20.2087 55.0414C20.2087 55.6126 20.6819 56.0744 21.2672 56.0744Z" fill="#3A2C60"/>
<path d="M21.2672 66.4049H84.2194C84.8048 66.4049 85.2779 65.9431 85.2779 65.3718C85.2779 64.8005 84.8048 64.3387 84.2194 64.3387H21.2672C20.6819 64.3387 20.2087 64.8005 20.2087 65.3718C20.2087 65.9431 20.6819 66.4049 21.2672 66.4049Z" fill="#3A2C60"/>
<path d="M35.654 100.18C34.85 100.18 34.106 100.024 33.422 99.712C32.75 99.388 32.198 98.938 31.766 98.362L33.098 96.76C33.794 97.72 34.628 98.2 35.6 98.2C36.908 98.2 37.562 97.426 37.562 95.878V89.362H33.08V87.4H39.902V95.752C39.902 97.228 39.542 98.338 38.822 99.082C38.102 99.814 37.046 100.18 35.654 100.18ZM56.4862 101.26C56.0662 101.752 55.5742 102.124 55.0102 102.376C54.4582 102.628 53.8522 102.754 53.1922 102.754C52.3282 102.754 51.5362 102.556 50.8162 102.16C50.0962 101.776 49.2742 101.104 48.3502 100.144C47.1862 100.048 46.1422 99.712 45.2182 99.136C44.2942 98.548 43.5742 97.786 43.0582 96.85C42.5422 95.902 42.2842 94.852 42.2842 93.7C42.2842 92.476 42.5782 91.372 43.1662 90.388C43.7542 89.392 44.5642 88.618 45.5962 88.066C46.6282 87.502 47.7862 87.22 49.0702 87.22C50.3542 87.22 51.5122 87.502 52.5442 88.066C53.5762 88.618 54.3862 89.386 54.9742 90.37C55.5622 91.354 55.8562 92.464 55.8562 93.7C55.8562 94.696 55.6582 95.62 55.2622 96.472C54.8662 97.312 54.3142 98.032 53.6062 98.632C52.8982 99.22 52.0762 99.646 51.1402 99.91C51.4882 100.282 51.8302 100.552 52.1662 100.72C52.5022 100.888 52.8622 100.972 53.2462 100.972C54.0742 100.972 54.7942 100.636 55.4062 99.964L56.4862 101.26ZM44.6422 93.7C44.6422 94.54 44.8342 95.302 45.2182 95.986C45.6022 96.658 46.1302 97.186 46.8022 97.57C47.4742 97.942 48.2302 98.128 49.0702 98.128C49.9102 98.128 50.6662 97.942 51.3382 97.57C52.0102 97.186 52.5382 96.658 52.9222 95.986C53.3062 95.302 53.4982 94.54 53.4982 93.7C53.4982 92.86 53.3062 92.104 52.9222 91.432C52.5382 90.748 52.0102 90.22 51.3382 89.848C50.6662 89.464 49.9102 89.272 49.0702 89.272C48.2302 89.272 47.4742 89.464 46.8022 89.848C46.1302 90.22 45.6022 90.748 45.2182 91.432C44.8342 92.104 44.6422 92.86 44.6422 93.7ZM67.4265 90.388V100H65.2845V98.776C64.9245 99.208 64.4745 99.544 63.9345 99.784C63.3945 100.012 62.8125 100.126 62.1885 100.126C60.9045 100.126 59.8905 99.772 59.1465 99.064C58.4145 98.344 58.0485 97.282 58.0485 95.878V90.388H60.2985V95.572C60.2985 96.436 60.4905 97.084 60.8745 97.516C61.2705 97.936 61.8285 98.146 62.5485 98.146C63.3525 98.146 63.9885 97.9 64.4565 97.408C64.9365 96.904 65.1765 96.184 65.1765 95.248V90.388H67.4265ZM79.4085 95.248C79.4085 95.404 79.3965 95.626 79.3725 95.914H71.8305C71.9625 96.622 72.3045 97.186 72.8565 97.606C73.4205 98.014 74.1165 98.218 74.9445 98.218C76.0005 98.218 76.8705 97.87 77.5545 97.174L78.7605 98.56C78.3285 99.076 77.7825 99.466 77.1225 99.73C76.4625 99.994 75.7185 100.126 74.8905 100.126C73.8345 100.126 72.9045 99.916 72.1005 99.496C71.2965 99.076 70.6725 98.494 70.2285 97.75C69.7965 96.994 69.5805 96.142 69.5805 95.194C69.5805 94.258 69.7905 93.418 70.2105 92.674C70.6425 91.918 71.2365 91.33 71.9925 90.91C72.7485 90.49 73.6005 90.28 74.5485 90.28C75.4845 90.28 76.3185 90.49 77.0505 90.91C77.7945 91.318 78.3705 91.9 78.7785 92.656C79.1985 93.4 79.4085 94.264 79.4085 95.248ZM74.5485 92.08C73.8285 92.08 73.2165 92.296 72.7125 92.728C72.2205 93.148 71.9205 93.712 71.8125 94.42H77.2665C77.1705 93.724 76.8765 93.16 76.3845 92.728C75.8925 92.296 75.2805 92.08 74.5485 92.08ZM83.7118 91.792C84.3598 90.784 85.4998 90.28 87.1318 90.28V92.422C86.9398 92.386 86.7658 92.368 86.6098 92.368C85.7338 92.368 85.0498 92.626 84.5578 93.142C84.0658 93.646 83.8198 94.378 83.8198 95.338V100H81.5698V90.388H83.7118V91.792ZM98.392 90.388L93.892 100.774C93.472 101.818 92.962 102.55 92.362 102.97C91.762 103.402 91.036 103.618 90.184 103.618C89.704 103.618 89.23 103.54 88.762 103.384C88.294 103.228 87.91 103.012 87.61 102.736L88.51 101.08C88.726 101.284 88.978 101.446 89.266 101.566C89.566 101.686 89.866 101.746 90.166 101.746C90.562 101.746 90.886 101.644 91.138 101.44C91.402 101.236 91.642 100.894 91.858 100.414L92.02 100.036L87.826 90.388H90.166L93.19 97.498L96.232 90.388H98.392Z" fill="#242C2E"/>
</g>
<defs>
<clipPath id="clip0_32:254">
<rect width="113" height="125" fill="white"/>
</clipPath>
</defs>
</svg>
