<svg width="18" height="21" viewBox="0 0 18 21" fill="none" xmlns="http://www.w3.org/2000/svg">
<path d="M16.0466 0.590286H3.62307C2.47055 0.590286 0.756104 1.37201 0.756104 3.52541V17.2226C0.756104 19.376 2.47055 20.1578 3.62307 20.1578H17.9579V18.201H3.63453C3.19302 18.1893 2.66741 18.0112 2.66741 17.2226C2.66741 17.1238 2.67601 17.0358 2.69035 16.9555C2.79738 16.392 3.24845 16.254 3.63453 16.2443H17.9579V2.54703C17.9579 2.02807 17.7565 1.53037 17.3981 1.1634C17.0396 0.796443 16.5535 0.590286 16.0466 0.590286ZM16.0466 9.39565L14.1353 8.41727L12.224 9.39565V2.54703H16.0466V9.39565Z" fill="#50CAE2"/>
</svg>
