<svg width="196" height="174" viewBox="0 0 196 174" fill="none" xmlns="http://www.w3.org/2000/svg">
<path fill-rule="evenodd" clip-rule="evenodd" d="M6.15954 134.512C8.17512 131.938 10.2765 129.28 11.3057 126.149L11.1771 126.063C10.3622 126.749 9.3759 127.436 8.47532 127.864L6.97436 128.593L7.48898 127.007C9.24725 121.818 10.7911 116.328 11.8203 110.968C12.1634 109.124 12.4636 107.28 12.678 105.393C12.8924 103.249 12.9782 101.147 13.064 99.003C13.1069 97.9309 13.1498 96.9017 13.1926 95.8295C13.3642 92.7847 13.8359 89.9972 14.7794 87.0811C16.1088 83.007 18.2102 79.1474 20.483 75.5451C19.4967 73.8297 18.5532 72.0285 17.6098 70.2702C15.6371 66.4106 13.7501 62.4223 12.1634 58.3912C10.6195 54.4887 9.0757 49.9 8.73262 45.6973C8.43243 42.2236 8.86129 38.5784 9.20437 35.1048C10.1907 25.1126 10.9198 15.5493 3.07186 7.78721L2.94318 7.65856L2.90031 7.48702C2.42857 5.98605 2.34281 4.05624 3.54358 2.85547C4.40127 2.04066 5.4734 1.74046 6.63128 1.86912C8.08936 2.04066 9.50454 2.89835 10.6624 3.75605L10.7053 3.79893H10.834C12.2921 5.21413 13.7073 7.40125 14.6507 9.15952C17.138 13.7053 18.5103 18.8086 19.025 23.9119C19.3251 26.9996 19.2823 30.1302 19.1965 33.2179C19.0678 38.6213 19.025 43.8961 20.6546 49.1281C22.7559 55.861 27.2588 61.0071 32.6623 65.3385L32.8338 65.3814C46.8571 65.3814 60.9233 65.4672 74.9466 65.6816C82.7945 65.8102 90.6853 65.9389 98.5332 66.1962C101.664 66.282 104.794 66.4106 107.925 66.5822C110.112 66.7108 112.299 66.8395 114.486 67.0968C116.716 67.4827 119.161 67.74 121.434 67.8258C122.763 67.8687 124.178 67.8687 125.465 67.6114C128.51 67.0968 131.683 64.7381 134.17 62.9798C135.457 62.0793 136.744 61.1787 138.116 60.321C139.317 59.5919 140.474 58.3912 141.418 57.3619C142.747 55.9039 143.991 54.36 145.192 52.8591C148.022 49.3854 151.239 45.3113 154.884 42.6954L154.97 42.5667C156.042 39.9936 157.285 37.4206 158.572 34.9332C159.43 33.2607 161.96 28.329 163.804 27.7715C165.005 27.4284 165.562 28.8007 165.819 29.7013C166.034 30.3875 166.162 31.1165 166.334 31.8027C166.506 32.5746 166.72 33.9898 167.235 35.0619C168.993 32.8319 171.437 29.8728 171.823 29.8728C172.295 29.83 172.209 34.5902 172.166 37.1204C175.897 37.6779 179.928 38.75 182.759 41.1944C183.702 42.0521 184.474 42.9527 185.203 44.0248C185.761 44.8825 186.275 45.7402 186.919 46.555C187.819 47.67 188.763 48.3133 190.135 48.785C191.078 49.0852 192.151 49.4283 193.008 49.8571C193.394 50.0287 193.78 50.286 193.78 50.8006V50.8864C194.209 53.0306 194.423 56.1183 193.737 58.2196C193.137 60.0637 191.979 61.6933 190.349 62.8083C188.634 63.9662 186.618 64.395 184.56 64.4379C181.987 64.4379 179.628 65.8531 177.784 67.5256C175.34 69.7556 173.281 72.8862 171.952 75.931C171.394 77.1747 170.966 78.5041 170.537 79.8335C169.979 81.5489 169.465 83.2643 168.95 84.9797C168.736 85.623 168.564 86.3091 168.35 86.9524C167.749 88.8822 167.149 90.8549 166.506 92.7847C165.991 94.3286 165.391 95.9582 164.661 97.4163L163.847 99.003L163.375 97.2876C163.246 96.8159 163.075 96.3013 162.903 95.8295H162.732C162.174 97.9738 161.488 100.204 160.759 102.262C160.33 103.463 159.816 104.707 159.258 105.865C157.457 109.381 156.213 113.541 155.313 117.358C154.155 122.204 153.383 127.178 152.997 132.153C152.782 134.597 152.697 137.042 152.697 139.486C152.697 146.648 153.726 157.927 159.344 163.116C161.274 162.773 164.79 162.644 166.162 164.231L166.205 164.274C167.406 165.346 168.607 166.461 169.765 167.576C170.622 168.433 171.652 169.463 172.338 170.492L173.067 171.564H153.683L153.469 171.307C152.268 169.849 151.067 168.433 149.866 166.932C149.18 166.118 148.537 165.26 147.894 164.402C147.465 163.802 146.95 163.116 146.607 162.43C146.221 161.7 145.878 160.886 145.535 160.114C144.849 158.613 144.205 157.069 143.562 155.568C141.718 151.279 139.917 146.948 138.244 142.574C137.687 141.116 137.129 139.658 136.572 138.157C135.586 135.455 134.599 132.71 133.784 129.966C133.227 128.122 132.584 125.977 132.369 124.005L132.241 124.348C130.525 129.237 128.81 134.168 127.352 139.1C126.28 142.703 124.993 146.348 123.449 149.779C122.463 152.009 121.133 154.71 119.504 156.554C118.432 157.798 117.231 158.913 116.03 160.071C114.915 161.143 111.399 164.274 111.442 165.946L111.484 166.332C111.613 167.79 111.785 169.677 111.227 171.006L111.056 171.435H104.88L104.709 171.307C104.108 170.878 103.594 170.406 103.165 169.806L103.036 169.634C102.693 169.12 102.393 168.562 102.264 167.962C101.921 166.504 102.393 164.66 102.95 163.33C103.594 161.743 104.537 160.2 105.824 159.042C107.496 157.498 109.083 155.139 110.155 153.166C111.184 151.322 112.213 148.964 112.514 146.862C112.642 146.005 112.642 145.104 112.685 144.246C112.728 143.003 112.728 141.716 112.728 140.473C112.728 138.114 112.728 135.798 112.814 133.439C112.942 130.094 113.157 126.106 114.143 122.933L114.272 122.547C113.8 122.504 113.328 122.461 112.9 122.418C110.455 122.204 107.968 121.989 105.481 122.032L102.136 122.075L105.18 120.703C105.223 120.703 105.266 120.66 105.309 120.66V120.531C101.707 120.145 98.1473 119.845 94.545 119.631C91.8432 119.459 89.0128 119.287 86.3111 119.33C85.4534 119.373 84.5099 119.245 83.6522 119.159C82.4086 119.03 81.2078 118.816 80.007 118.644C78.549 118.43 76.9622 118.215 75.2897 118.001L75.2039 118.558C74.6893 121.861 73.8745 125.334 72.7595 128.465C72.3307 129.666 71.8589 130.823 71.3872 131.981C69.8862 135.841 65.5549 146.262 67.1845 149.993C68.2566 152.394 69.5432 154.624 71.2157 156.64C73.3599 159.213 75.933 161.272 78.8063 162.987L78.9349 163.03C82.0655 163.33 88.2838 164.617 89.2272 168.09C89.3988 168.648 89.4846 169.248 89.4846 169.806C89.4846 170.192 89.4845 170.535 89.4417 170.921L89.3559 171.521H74.4749L74.3034 171.392C70.0149 168.176 65.7693 164.874 61.6095 161.486C58.9506 159.299 56.2918 157.069 53.8045 154.71C52.7752 153.724 50.1164 151.194 49.902 149.736C49.6018 147.763 49.7733 145.533 49.902 143.517C50.0735 141.073 50.245 138.5 49.8591 136.055H49.6875C49.516 136.398 49.2587 136.699 49.0443 136.913L48.1437 137.857L47.8864 136.57C47.2002 133.225 45.9566 129.708 44.2412 126.749L44.0696 126.492C42.5687 128.379 41.0677 130.266 39.481 132.024C37.98 133.697 36.4361 135.283 34.6779 136.699C31.6331 139.143 28.4167 140.601 24.8573 142.145C22.1984 143.303 18.9821 144.89 16.8807 146.948C15.8086 147.977 14.9938 149.178 14.8223 150.722C14.5649 152.952 14.6936 155.611 14.9938 157.841C15.2511 159.985 15.7228 162.129 16.5376 164.102C17.524 164.274 18.9392 164.745 19.5396 165.603C20.14 166.504 20.6975 167.661 21.1263 168.691C21.3836 169.377 21.6409 170.063 21.7696 170.792L21.9411 171.607H7.1459L6.93148 171.264C6.5884 170.706 6.28821 170.149 6.07379 169.591C5.81648 168.948 5.55916 168.176 5.55916 167.49C5.55916 166.761 5.38762 165.86 5.25897 165.131C5.04454 163.759 4.78723 162.387 4.52992 161.014C4.10107 158.699 3.71512 156.34 3.32915 154.024C2.90031 151.322 2.47146 148.621 2.25704 145.919C2.12838 144.461 1.91396 141.802 2.34281 140.43C3.02897 138.328 4.83011 136.184 6.15954 134.512ZM130.054 97.7594C129.968 97.8451 129.925 97.888 129.839 97.9738L129.753 98.7028C129.839 98.4026 129.925 98.1024 130.054 97.7594ZM126.923 103.849C126.923 103.763 126.966 103.677 126.966 103.592L126.837 103.849H126.923Z" fill="#EEB462"/>
<path fill-rule="evenodd" clip-rule="evenodd" d="M171.394 30.3015C171.566 30.3015 171.737 30.3015 171.866 30.3873C171.866 30.3873 170.708 35.9194 170.966 36.7342C171.223 37.549 168.135 36.9915 168.221 34.8902C168.221 34.4613 168.264 34.1183 168.307 33.8181C169.507 32.4029 170.708 30.9877 171.394 30.3015Z" fill="#DC8665"/>
<path fill-rule="evenodd" clip-rule="evenodd" d="M6.71715 1.86905C8.17523 2.04059 9.59041 2.89828 10.7483 3.75598L10.7912 3.79886H10.8341C12.2921 5.21406 13.7074 7.40118 14.6508 9.15945C16.3662 12.3329 17.567 15.7637 18.296 19.2802C18.0387 19.1945 17.7814 19.0229 17.4812 18.8085C17.4812 18.8085 15.8945 16.1497 14.8652 16.5785C13.836 17.0074 15.3799 23.3972 14.222 24.0404C13.107 24.7266 12.4208 17.4791 11.3487 17.4791C10.2766 17.4791 11.4345 20.7812 10.1908 20.9528C10.0621 20.9528 9.84771 20.9099 9.46175 20.7812C8.81848 16.1068 7.06021 11.6897 3.02904 7.70137L2.90039 7.57272L2.85752 7.40118C2.38579 5.90021 2.30002 3.9704 3.50079 2.76963C4.44426 1.9977 5.51637 1.69751 6.71715 1.86905Z" fill="#F5E8D3"/>
<path fill-rule="evenodd" clip-rule="evenodd" d="M189.921 52.5159C191.593 52.2157 193.008 52.3015 194.123 52.6017C194.338 54.4886 194.338 56.7186 193.823 58.3053C193.223 60.1494 192.108 61.7361 190.521 62.8082C184.689 61.3501 185.975 57.1903 186.275 55.089C186.576 52.859 189.921 52.5159 189.921 52.5159Z" fill="#F5E8D3"/>
<path fill-rule="evenodd" clip-rule="evenodd" d="M5.94516 134.726C7.10305 135.112 7.96076 135.841 8.13229 136.999C8.77557 140.901 12.0348 141.158 16.409 137.17C20.7833 133.182 51.9176 112.769 42.9976 82.4493C42.9976 82.4493 48.9585 87.9385 50.8026 91.5409C52.6895 95.1432 55.477 101.319 62.5101 101.79C65.4692 102.005 74.0032 102.519 83.2234 102.005C83.2234 102.005 108.997 103.892 116.202 96.8586C123.406 89.8255 119.161 74.5156 119.161 74.5156C119.161 74.5156 124.093 82.192 124.093 87.2524C124.093 87.2524 130.611 71.5566 137.258 78.0751C138.63 82.6208 140.303 84.7651 138.502 92.0984C136.315 101.018 137.387 126.106 143.048 133.911C147.165 139.615 152.911 124.433 155.741 115.771C155.613 116.328 155.484 116.843 155.356 117.4C154.198 122.246 153.426 127.221 153.04 132.196C152.825 134.64 152.74 137.084 152.74 139.529C152.74 146.691 153.769 157.969 159.387 163.158C161.317 162.815 164.833 162.687 166.205 164.273L166.248 164.316C167.449 165.388 168.65 166.503 169.808 167.618C170.665 168.476 171.695 169.505 172.381 170.535L173.11 171.607H153.726L153.511 171.349C152.311 169.891 151.11 168.476 149.909 166.975C149.223 166.16 148.58 165.303 147.936 164.445C147.508 163.845 146.993 163.158 146.65 162.472C146.264 161.743 145.921 160.928 145.578 160.156C144.892 158.655 144.248 157.112 143.605 155.611C141.761 151.322 139.96 146.991 138.287 142.617C137.73 141.158 137.172 139.7 136.615 138.199C135.629 135.498 134.642 132.753 133.827 130.008C133.27 128.164 132.627 126.02 132.412 124.047L132.284 124.391L131.94 125.334C131.597 124.519 130.354 122.589 126.923 122.89C126.923 122.89 123.578 124.519 122.249 129.751C120.919 134.983 120.147 148.449 123.149 148.835C123.449 148.878 123.664 148.921 123.878 148.921C123.749 149.221 123.621 149.478 123.492 149.735C122.506 151.965 121.176 154.667 119.547 156.511C118.475 157.755 117.274 158.87 116.073 160.028C114.958 161.1 111.442 164.23 111.484 165.903L111.527 166.289C111.656 167.747 111.828 169.634 111.27 170.963L111.098 171.392H104.923L104.752 171.264C104.151 170.835 103.637 170.363 103.208 169.763L103.079 169.591C102.736 169.076 102.436 168.519 102.307 167.919C101.964 166.46 102.436 164.616 102.993 163.287C103.637 161.7 104.58 160.156 105.867 158.999C107.539 157.455 109.126 155.096 110.198 153.123C111.227 151.279 112.256 148.921 112.557 146.819C112.685 145.962 112.685 145.061 112.728 144.203C112.771 142.96 112.771 141.673 112.771 140.429C112.771 138.071 112.771 135.755 112.857 133.396C112.985 130.051 113.2 126.063 114.186 122.89L114.315 122.504C113.843 122.461 113.371 122.418 112.943 122.375C110.498 122.161 108.011 121.946 105.523 121.989L103.98 121.646L105.223 120.66C105.266 120.66 105.309 120.617 105.352 120.617V120.488C101.75 120.102 98.1902 119.802 94.5879 119.587C91.8861 119.416 89.0557 119.244 86.354 119.287C85.4963 119.33 84.5529 119.202 83.6952 119.116C82.4515 118.987 81.2507 118.773 80.05 118.601C78.8492 118.43 77.5627 118.258 76.2332 118.044C74.8609 117.529 67.2703 118.515 63.7538 117.572C63.7538 117.572 64.9117 123.962 63.8824 128.893C62.8532 133.825 63.7109 146.004 66.284 146.262C66.5842 146.305 66.7986 146.305 66.9701 146.348C66.7986 147.806 66.8415 149.049 67.2274 149.907C68.2996 152.309 69.5861 154.539 71.2586 156.554C73.4028 159.127 75.9759 161.186 78.8492 162.901L78.9779 162.944C82.1084 163.244 88.3267 164.531 89.2702 168.004C89.4417 168.562 89.5275 169.162 89.5275 169.72C89.5275 170.106 89.5275 170.449 89.4846 170.835L89.3988 171.435H74.5178L74.3463 171.306C70.0578 168.09 65.8122 164.788 61.6524 161.4C58.9936 159.213 56.3347 156.983 53.8474 154.624C52.8182 153.638 50.1593 151.108 49.9449 149.65C49.6447 147.677 49.8162 145.447 49.9449 143.431C50.1164 140.987 50.288 138.414 49.902 135.969H49.7305C49.5589 136.313 49.3016 136.613 49.0872 136.827L48.1866 137.771L47.9293 136.484C47.2432 133.139 45.9995 129.622 44.2841 126.663L44.1126 126.406C42.6116 128.293 41.1106 130.18 39.5239 131.938C38.0229 133.611 36.4791 135.198 34.7208 136.613C31.676 139.057 28.4596 140.515 24.9002 142.059C22.2414 143.217 19.025 144.804 16.9237 146.862C15.8515 147.891 15.0367 149.092 14.8652 150.636C14.6079 152.866 14.7365 155.525 15.0367 157.755C15.294 159.899 15.7658 162.043 16.5806 164.016C17.5669 164.188 18.9821 164.659 19.5825 165.517C20.1829 166.418 20.7404 167.575 21.1692 168.605C21.4265 169.291 21.6839 169.977 21.8125 170.706L21.9841 171.521H7.18883L6.9744 171.178C6.63132 170.62 6.33113 170.063 6.11671 169.505C5.8594 168.862 5.60209 168.09 5.60209 167.404C5.60209 166.718 5.43056 165.903 5.34479 165.217C7.36037 165.174 9.93346 164.96 11.0056 164.059C12.8925 162.515 11.22 149.693 8.90421 147.077C7.57479 145.618 4.74441 145.876 2.42863 146.605C2.38575 146.348 2.38574 146.047 2.34286 145.79C2.2142 144.332 1.99979 141.673 2.42863 140.301C3.02902 138.457 4.65862 136.398 5.94516 134.726ZM130.054 97.7591C129.968 97.8449 129.925 97.8878 129.839 97.9736L129.753 98.7026C129.839 98.4024 129.925 98.1022 130.054 97.7591ZM126.923 103.849C126.923 103.763 126.966 103.677 126.966 103.591L126.837 103.849H126.923Z" fill="#DC8665"/>
<path fill-rule="evenodd" clip-rule="evenodd" d="M66.9701 146.519C66.9701 146.476 66.9701 146.476 66.9701 146.519C67.1416 146.519 68.2567 146.648 66.9701 146.519Z" fill="#DC8665"/>
<path fill-rule="evenodd" clip-rule="evenodd" d="M123.921 149.092C123.921 149.049 123.964 149.049 123.964 149.006C124.093 149.049 125.636 149.307 123.921 149.092Z" fill="#DC8665"/>
<path fill-rule="evenodd" clip-rule="evenodd" d="M106.553 106.808C127.095 107.237 129.625 112.512 129.925 113.541C129.925 113.584 129.968 113.669 129.968 113.712C130.096 114.356 130.225 114.956 130.397 115.599C130.954 118.129 131.512 120.617 131.812 122.933C130.054 122.504 126.022 121.689 121.562 122.075C118.861 122.289 115.987 122.032 113.028 121.818C110.584 121.603 108.097 121.389 105.566 121.432C105.781 121.346 105.995 121.26 106.167 121.174L106.038 119.974C105.995 119.974 92.6152 118.558 86.3541 118.73C85.0675 118.773 82.8804 118.43 80.1358 118.044C73.1456 117.014 62.7246 115.471 54.4479 118.001C55.9917 103.549 83.7381 106.379 106.553 106.808Z" fill="#F5E8D3"/>
<path fill-rule="evenodd" clip-rule="evenodd" d="M163.589 42.138C163.804 43.0385 164.619 43.8105 164.619 43.8105C159.773 42.7812 161.188 36.9489 161.188 36.9489C160.973 33.0464 164.104 28.7579 164.104 28.7579C163.89 30.5162 164.576 31.9314 165.133 33.1751C165.691 34.4187 166.205 39.2647 166.205 39.2647C166.849 39.2218 167.535 38.5357 167.535 38.5357C166.72 42.8241 163.589 42.138 163.589 42.138Z" fill="#DC8665"/>
<path fill-rule="evenodd" clip-rule="evenodd" d="M171.866 68.5118C171.866 68.5118 161.059 67.6541 160.287 70.8705C154.798 61.7789 157.843 50.9291 157.843 50.9291C159.258 63.5372 171.866 68.5118 171.866 68.5118Z" fill="#DC8665"/>
<path fill-rule="evenodd" clip-rule="evenodd" d="M162.646 44.6251L156.728 45.9116C156.728 45.9116 158.358 41.5374 160.116 38.1924C160.159 38.2353 159.515 42.7382 162.646 44.6251Z" fill="#DC8665"/>
<path d="M4.70151 133.354C5.47344 132.367 6.28823 131.338 7.01727 130.309L4.10111 131.166L5.34478 127.65C5.98805 125.892 6.54555 124.133 7.06017 122.332C8.21806 118.473 9.24728 114.57 10.0192 110.625C10.3623 108.824 10.6625 106.979 10.8769 105.178C11.0913 103.077 11.1771 101.019 11.2629 98.9171C11.3058 97.845 11.3486 96.73 11.3915 95.6579C11.5631 92.656 11.9919 89.8685 12.8925 86.9952C14.0933 83.0498 16.0231 79.3188 18.1673 75.8452C18.296 75.5879 18.296 75.3734 18.1673 75.1161C15.294 69.8842 12.5923 64.3521 10.448 58.8199C8.9042 54.8317 7.31747 50.1143 6.9744 45.8259C6.6742 42.2236 7.10304 38.4926 7.44612 34.8903C8.38958 25.5843 9.20441 16.3212 1.914 9.07367C1.74247 8.90213 1.61381 8.73059 1.48516 8.51617L1.39938 8.34463L1.35651 8.21597C1.0992 7.48693 0.927645 6.62924 0.884761 5.9002C0.798991 4.27058 1.18495 2.68384 2.38573 1.52596C3.62938 0.282298 5.25901 -0.189431 6.9744 0.0678774C8.73267 0.282301 10.4052 1.22576 11.8204 2.255C11.8632 2.29788 11.949 2.34076 11.9919 2.38365L12.0348 2.42654L12.0777 2.46942C13.5787 3.88462 15.0367 6.11462 16.0231 7.8729C18.7677 12.7189 20.3115 18.2081 20.8262 23.7402C21.1263 26.9137 21.0835 30.0872 20.9977 33.2606C20.9119 38.321 20.8262 43.2957 22.2842 48.2274C24.1712 54.4886 28.1594 59.2917 33.1341 63.3657C33.2627 63.4944 33.3914 63.5373 33.6058 63.5373C47.4147 63.5373 61.1807 63.623 74.9896 63.8375C82.8803 63.9661 90.7283 64.0948 98.6191 64.3521C101.75 64.4378 104.923 64.5665 108.054 64.738C110.241 64.8667 112.471 64.9953 114.658 65.2526C114.701 65.2526 114.701 65.2526 114.744 65.2526H114.787C116.931 65.6386 119.161 65.8959 121.348 65.9817C122.592 66.0246 123.921 66.0246 125.165 65.8102C127.824 65.3384 130.954 63.0226 133.141 61.4788C134.471 60.5353 135.8 59.6348 137.172 58.7771C138.245 58.1338 139.317 57.0188 140.131 56.0753C141.418 54.6601 142.576 53.202 143.777 51.7011C146.607 48.1845 149.738 44.3249 153.34 41.5803C153.469 41.4945 153.511 41.4087 153.554 41.2801C154.669 38.707 155.913 36.1339 157.2 33.6895C158.315 31.631 160.931 26.6993 163.289 26.0131C164.018 25.7987 164.79 25.7987 165.476 26.1418C166.677 26.6993 167.235 28.0287 167.578 29.1866C167.621 29.3153 167.663 29.401 167.663 29.5297C167.749 29.787 167.921 29.9585 168.178 30.0443C168.435 30.1301 168.693 30.0443 168.864 29.8728C169.808 28.9293 171.437 27.3854 172.895 28.0716C173.11 28.1574 173.281 28.3289 173.453 28.5004C174.311 29.4439 174.182 32.2743 174.182 33.518C174.182 34.0326 174.139 34.5043 174.139 35.0189C174.139 35.4049 174.353 35.7051 174.739 35.748C179.114 36.5628 183.016 38.2353 186.018 41.6661C186.147 41.8376 186.275 41.9662 186.361 42.1378L186.447 42.2664L186.49 42.3522C187.176 44.1963 188.806 46.4263 190.735 47.0695C192.236 47.5413 194.638 48.4847 195.41 50.0286C196.268 51.7868 196.096 56.933 195.496 58.8199C194.767 61.0499 193.351 63.0226 191.422 64.3521C189.406 65.7244 187.004 66.2819 184.603 66.2819C182.502 66.2819 180.529 67.5255 179.028 68.8978C176.798 70.9563 174.868 73.8725 173.667 76.66C173.153 77.8608 172.724 79.1902 172.338 80.4338C171.78 82.1063 171.309 83.8217 170.794 85.4942C170.58 86.1804 170.365 86.8665 170.151 87.5527C169.422 89.9542 168.693 92.3129 167.835 94.6716C166.634 98.0166 164.79 101.233 163.332 104.578L162.56 102.777C162.088 104.149 161.531 105.479 160.931 106.679C159.172 110.11 157.972 114.141 157.071 117.872C155.956 122.632 155.184 127.521 154.798 132.41C154.626 134.769 154.498 137.085 154.541 139.443C154.541 145.876 155.398 155.782 159.773 160.886C159.944 161.057 160.116 161.143 160.373 161.143C162.646 160.971 165.777 161.1 167.449 162.901L167.492 162.944C169.293 164.531 171.18 166.118 172.681 168.004C173.496 168.991 173.624 170.32 173.067 171.478C172.509 172.636 171.394 173.365 170.108 173.365L154.283 173.408C153.254 173.408 152.311 172.936 151.667 172.121C150.638 170.792 149.566 169.463 148.494 168.133C147.765 167.233 147.036 166.332 146.35 165.388C145.878 164.745 145.321 164.016 144.935 163.33C144.549 162.601 144.206 161.743 143.862 161.014C143.176 159.513 142.533 157.969 141.847 156.426C140.003 152.094 138.202 147.763 136.486 143.389C135.886 141.888 135.328 140.387 134.771 138.886C134.042 136.87 133.313 134.812 132.627 132.753C132.498 132.367 132.284 131.467 132.069 130.738C131.726 131.424 131.383 132.367 131.254 132.753C130.482 135.069 129.71 137.428 129.024 139.743C127.952 143.431 126.623 147.162 125.036 150.636C123.964 153.038 122.549 155.868 120.79 157.884C119.675 159.17 118.432 160.328 117.231 161.529C116.545 162.172 113.371 165.131 113.2 166.032L113.329 167.275C113.457 168.905 113.457 170.706 112.728 172.164C112.642 172.379 112.514 172.55 112.342 172.765L111.913 173.279L111.227 173.365C111.056 173.408 110.927 173.408 110.755 173.408H105.138C104.794 173.408 104.494 173.365 104.151 173.279L103.894 173.193L103.722 173.108C102.908 172.55 102.178 171.864 101.578 171.092C101.021 170.32 100.549 169.463 100.334 168.519C99.9056 166.718 100.42 164.488 101.106 162.773C101.835 160.928 102.95 159.127 104.451 157.798C105.952 156.426 107.41 154.196 108.397 152.394C109.297 150.765 110.284 148.578 110.541 146.734C110.67 145.919 110.67 145.061 110.67 144.289C110.713 143.046 110.713 141.802 110.713 140.601C110.713 138.157 110.713 135.712 110.798 133.225C110.884 130.523 111.099 127.736 111.57 125.077C111.613 124.862 111.57 124.691 111.442 124.519C111.313 124.348 111.141 124.262 110.927 124.219C108.268 124.005 98.1044 124.305 97.89 123.361C97.8471 123.147 100.506 122.204 100.549 122.032C98.4904 121.86 96.389 121.689 94.3306 121.56C91.6288 121.389 88.8413 121.217 86.1396 121.26C85.1961 121.303 84.2098 121.174 83.2663 121.089C82.0227 120.96 80.779 120.745 79.4925 120.574C78.7634 120.445 78.0344 120.36 77.2625 120.274C76.8765 120.231 76.5334 120.488 76.4476 120.874C75.933 123.705 75.204 126.535 74.2176 129.237C73.7888 130.437 73.3171 131.638 72.8453 132.796C72.0734 134.726 71.3444 136.656 70.6153 138.628C69.8434 140.816 67.6563 147.205 68.5997 149.392C69.5861 151.665 70.7869 153.724 72.3736 155.611C74.2605 157.884 76.5334 159.771 79.0636 161.272C79.1494 161.314 79.2351 161.357 79.3638 161.357C83.2234 161.829 89.5704 163.416 90.7712 167.661C90.9856 168.348 91.0713 169.077 91.1142 169.806C91.1571 170.835 90.8998 172.293 90.7712 173.365L74.6465 173.408C74.2605 173.408 73.9603 173.365 73.5744 173.236L73.3171 173.151L73.1455 173.022C68.6426 169.677 64.2255 166.203 59.8942 162.644C57.1924 160.414 54.4478 158.098 51.9605 155.611C50.7168 154.367 48.1008 151.794 47.8435 150.036C47.5005 147.892 47.672 145.576 47.8007 143.431C47.8864 142.188 47.9722 140.901 47.9722 139.658L46.3426 140.558L45.9566 137.814C45.8709 137.127 45.6993 136.398 45.5278 135.755C45.1418 134.126 44.5843 132.453 43.941 130.909C43.8553 130.652 43.6408 130.523 43.3835 130.48C43.1262 130.437 42.9118 130.523 42.6974 130.738C40.5102 133.354 38.1516 135.97 35.5356 138.114C32.3193 140.687 29.06 142.188 25.2862 143.817C22.8417 144.847 19.7541 146.348 17.8671 148.235C17.1381 148.964 16.4519 149.821 16.3662 150.893C16.1517 152.995 16.2804 155.482 16.5377 157.583C16.7521 159.127 17.0523 160.714 17.524 162.172C17.6098 162.429 17.7385 162.558 17.9958 162.644C19.0679 162.987 20.14 163.587 20.7833 164.531C21.4694 165.56 22.1127 166.847 22.5415 168.004C22.9704 169.034 23.3135 170.192 23.3992 171.307V171.349L23.5708 173.408H7.40324C6.84574 173.408 6.33112 173.279 5.8165 172.979L5.47343 172.765L5.30188 172.507C4.83015 171.778 4.44419 171.049 4.10111 170.234C3.75804 169.377 3.45784 168.433 3.45784 167.447C3.45784 166.804 3.2863 165.946 3.15765 165.303C2.94322 163.93 2.68592 162.601 2.4715 161.229C2.04265 158.784 1.6138 156.383 1.22783 153.938C0.798986 151.194 0.370139 148.449 0.155715 145.661C0.027061 143.989 -0.187352 141.33 0.327265 139.743C1.39938 137.513 3.20055 135.283 4.70151 133.354ZM107.239 160.628C106.21 161.572 105.395 162.901 104.88 164.188C104.494 165.088 104.065 166.675 104.28 167.661C104.366 168.047 104.623 168.433 104.837 168.776L104.923 168.862C105.095 169.077 105.266 169.248 105.438 169.42C105.566 169.548 105.738 169.591 105.909 169.591H109.04C109.426 169.591 109.769 169.291 109.769 168.862C109.769 168.133 109.726 167.447 109.64 166.718L109.598 166.246C109.469 164.788 110.369 163.373 111.27 162.301C112.299 161.014 113.586 159.856 114.787 158.698C115.902 157.626 117.102 156.511 118.132 155.353C119.59 153.638 120.833 151.108 121.777 149.049C123.278 145.704 124.521 142.145 125.594 138.628C126.837 134.383 128.295 130.094 129.753 125.892C129.839 125.677 129.796 125.506 129.71 125.291C129.582 125.077 129.453 124.991 129.196 124.948C126.751 124.519 124.221 124.348 121.777 124.562C120.019 124.691 118.26 124.648 116.502 124.562C116.159 124.562 115.816 124.777 115.73 125.12C115.173 127.821 114.958 130.781 114.872 133.525C114.787 135.841 114.787 138.157 114.787 140.472C114.787 141.759 114.787 143.046 114.744 144.289C114.744 145.233 114.701 146.219 114.572 147.12C114.229 149.478 113.114 152.051 111.999 154.11C110.798 156.426 109.083 158.956 107.239 160.628ZM46.6856 126.964C47.8435 129.237 48.8299 131.767 49.4731 134.297C50.1593 134.083 50.6739 133.396 51.3601 133.439C52.3035 137.256 52.2178 139.786 51.9605 143.732C51.8318 145.576 51.6603 147.677 51.9605 149.521C52.132 150.336 54.748 152.866 55.3913 153.467C57.7928 155.782 60.4088 157.927 62.9818 160.071C66.9272 163.287 71.0013 166.461 75.0753 169.505C75.204 169.591 75.3326 169.634 75.5042 169.634H86.74C86.9973 169.634 87.1688 169.548 87.2975 169.334C87.4261 169.119 87.469 168.948 87.4261 168.691V168.648C86.7829 166.289 80.9934 165.26 78.935 165.045C78.7205 165.003 78.5061 164.96 78.2917 164.917L78.0773 164.874L77.9486 164.788C74.8609 162.987 72.0734 160.757 69.7576 157.969C67.9565 155.782 66.5413 153.424 65.4263 150.851C63.9253 147.42 66.0267 141.03 67.2274 137.685C67.9565 135.541 68.8142 133.439 69.629 131.338C70.1007 130.18 70.5296 129.022 70.9584 127.864C71.8161 125.463 72.4594 122.933 72.974 120.402C73.0169 120.188 72.974 120.016 72.8453 119.845C72.7167 119.673 72.5451 119.588 72.3307 119.545C64.1826 118.73 52.6466 118.515 47.1574 125.634C47.0287 125.806 46.9001 125.977 46.7714 126.149C46.557 126.449 46.5141 126.706 46.6856 126.964ZM4.27266 145.704C4.52997 148.363 4.91594 151.022 5.34478 153.681C5.73074 155.997 6.1167 158.312 6.54555 160.628C6.80286 162.001 7.01729 163.416 7.27459 164.788C7.40325 165.603 7.57478 166.546 7.61767 167.404C7.61767 167.876 7.78922 168.39 8.00364 168.819C8.04653 168.948 8.13228 169.077 8.17516 169.205C8.30382 169.463 8.51824 169.634 8.81843 169.634H18.4246C18.6819 169.634 18.8963 169.505 19.025 169.291C19.1536 169.077 19.1965 168.862 19.0679 168.605C18.7677 167.962 18.4246 167.275 18.0386 166.718C17.8671 166.461 17.0952 166.246 16.795 166.16C15.7229 165.86 14.9081 165.131 14.5221 164.059C13.8359 162.129 13.4071 160.114 13.1498 158.055C12.8496 155.654 12.7209 152.909 12.9783 150.507C13.1927 148.535 14.2219 146.905 15.6371 145.533C17.91 143.303 21.2979 141.587 24.2141 140.344C27.602 138.886 30.6896 137.513 33.5629 135.198C35.1925 133.868 36.6935 132.324 38.1087 130.738C40.21 128.379 42.2256 125.849 44.1555 123.319C52.1749 112.898 69.0286 115.085 80.393 116.757C81.5938 116.929 82.7946 117.1 83.9953 117.272C84.7673 117.358 85.5821 117.486 86.354 117.443C89.1415 117.358 92.0148 117.529 94.8023 117.744C100.077 118.087 104.752 118.816 110.026 118.473L107.368 120.188C109.297 120.231 111.227 120.402 113.157 120.574C115.902 120.788 118.732 121.046 121.477 120.831C124.05 120.617 126.709 120.788 129.282 121.174C129.539 121.217 129.753 121.131 129.925 120.96C130.096 120.788 130.182 120.574 130.096 120.317C129.839 118.859 129.496 117.4 129.153 115.9C128.424 112.64 127.652 109.209 127.395 105.779L125.894 108.009C125.379 106.122 124.95 104.578 124.736 102.991C124.221 91.2837 133.87 87.9387 133.87 87.9387L132.884 88.7535C130.568 90.6833 129.282 93.3421 128.724 96.1725C128.724 96.1296 128.767 96.1297 128.767 96.0868L132.627 93.8996C131.297 103.634 130.482 104.621 132.841 115.128C133.57 118.515 134.213 121.903 134.942 125.291C135.843 129.537 137.044 133.525 138.545 137.599C139.102 139.057 139.66 140.515 140.217 141.973C141.89 146.305 143.691 150.636 145.492 154.882C146.135 156.383 146.779 157.884 147.465 159.385C147.808 160.114 148.108 160.886 148.494 161.572C148.794 162.129 149.266 162.772 149.652 163.287C150.252 164.145 150.896 164.96 151.582 165.774C152.568 166.975 153.554 168.176 154.541 169.377C154.712 169.548 154.841 169.634 155.098 169.634H167.406C167.706 169.634 167.964 169.463 168.092 169.162C168.221 168.862 168.135 168.605 167.921 168.39C167.02 167.49 166.034 166.632 165.09 165.774C165.047 165.732 165.005 165.689 164.919 165.646L164.876 165.603L164.833 165.56C164.147 164.745 161.317 164.917 160.33 165.045C159.301 165.174 158.315 164.831 157.586 164.059C152.011 158.27 150.896 147.205 150.853 139.529C150.853 137.042 150.938 134.511 151.153 132.024C151.539 126.964 152.354 121.86 153.511 116.929C154.455 112.94 155.784 108.652 157.628 105.007C158.186 103.935 158.615 102.777 159.044 101.662C160.416 97.845 161.402 94.157 162.903 90.2973L164.19 93.8139C164.404 93.2564 164.576 92.6989 164.79 92.1843C165.433 90.2973 166.034 88.3675 166.634 86.4377C166.849 85.7944 167.02 85.1512 167.235 84.465C167.749 82.7496 168.264 80.9913 168.821 79.276C169.25 77.9036 169.722 76.5313 170.279 75.2019C171.695 71.9427 173.925 68.5548 176.583 66.1532C178.813 64.0948 181.601 62.5509 184.689 62.5509C185.932 62.5509 187.176 62.3365 188.334 61.8648C188.634 61.7361 188.806 61.4359 188.763 61.1357C188.72 60.7926 188.505 60.5782 188.205 60.4925C184.86 59.8063 185.332 56.8044 186.576 54.4457C187.004 57.4476 189.706 56.8044 189.706 56.8044C189.792 56.8044 189.878 56.7615 190.006 56.7615C190.693 56.5899 191.164 56.1611 191.464 55.5178C191.55 55.3034 191.55 55.089 191.464 54.8746C191.379 54.6601 191.207 54.5315 190.95 54.4886C190.435 54.3599 189.835 54.1026 189.406 53.7595C188.334 52.8161 188.162 51.4009 188.162 51.4009L189.964 51.3151C190.221 51.3151 190.478 51.2293 190.735 51.1436C190.392 51.0149 190.049 50.9292 189.706 50.8005C187.991 50.243 186.704 49.3424 185.589 47.9272C184.174 46.1689 183.445 44.3678 181.687 42.8239C178.942 40.4224 174.654 39.5218 171.137 39.0501C170.237 38.9214 169.25 38.8357 168.35 38.5784C165.734 37.8493 165.133 34.5901 164.619 32.3172C164.49 31.6739 164.361 30.9878 164.147 30.3445C164.147 30.3016 164.104 30.2587 164.104 30.1729C163.675 30.6447 163.161 31.3737 162.989 31.6739C162.088 33.0462 161.274 34.5043 160.545 35.9195C159.301 38.321 158.143 40.8084 157.071 43.2528C156.942 43.5101 156.814 43.7674 156.599 44.0247L156.428 44.1963L156.299 44.282C152.782 46.7693 149.609 50.7576 146.907 54.1026C145.664 55.6465 144.377 57.2332 143.048 58.6913C141.975 59.8921 140.689 61.1357 139.317 61.9934C137.987 62.8082 136.744 63.6659 135.5 64.5665C132.712 66.5392 129.41 68.9407 125.98 69.4982C124.564 69.7556 123.02 69.7556 121.562 69.7127C119.204 69.6269 116.716 69.3696 114.401 68.9407H114.358C112.214 68.6834 110.069 68.5548 107.925 68.4261C104.794 68.2546 101.707 68.1259 98.5762 68.0402C90.7282 67.7828 82.9232 67.6542 75.0753 67.5255C61.1378 67.3111 47.1574 67.2253 33.2199 67.2253C32.8339 67.2253 32.4908 67.1825 32.1477 67.0538L31.8904 66.968L31.7189 66.8394C25.9294 62.2507 21.2121 56.7615 18.9392 49.5997C17.2239 44.1105 17.2667 38.707 17.3954 33.0462C17.4383 30.0443 17.524 26.9995 17.2239 23.9547C16.7521 19.2802 15.5514 14.6487 13.3642 10.4889C12.4208 8.68771 11.1342 6.62924 9.71903 5.17116C9.67614 5.12827 9.67614 5.12827 9.63325 5.08539C8.81844 4.485 7.66056 3.79885 6.63132 3.67019C6.07382 3.58442 5.60208 3.71308 5.17323 4.09904C4.65862 4.57077 4.74438 5.60001 4.87303 6.20039C4.91592 6.32905 4.95881 6.4577 5.04458 6.54347C10.5767 12.2471 12.1206 19.0229 11.9919 26.6564C11.949 29.4868 11.6488 32.2743 11.3915 35.0618C11.0484 38.4068 10.6625 41.9662 10.9198 45.3113C11.2629 49.2995 12.7638 53.7595 14.2219 57.4476C16.3662 62.9798 19.1108 68.5119 22.0269 73.7009C22.6273 74.7731 22.5844 76.0167 21.9412 77.0459C19.8827 80.391 17.9529 83.9933 16.7521 87.7242C15.8944 90.3831 15.5085 92.9562 15.3369 95.7437C15.294 96.7729 15.2512 97.8022 15.2083 98.8314C15.1225 101.019 15.0367 103.206 14.8223 105.393C14.6079 107.323 14.3077 109.252 13.9646 111.139C13.1498 115.385 12.0348 119.673 10.7054 123.876C11.0056 123.662 11.3057 123.447 11.6059 123.233L13.6215 121.903L13.5787 124.348C13.4929 128.722 10.4052 132.281 7.83209 135.541C6.71709 136.956 4.95881 139.1 4.40131 140.816C3.92958 142.016 4.14401 144.632 4.27266 145.704Z" fill="#493A5C"/>
<path d="M179.8 46.5979C180.229 47.1554 180.1 47.9274 179.585 48.3562C179.028 48.785 178.256 48.6564 177.827 48.1418C177.827 48.1418 175.426 44.8825 172.552 47.7558C172.081 48.2276 171.266 48.2276 170.794 47.7558C170.322 47.2841 170.322 46.4693 170.794 45.9975C175.683 41.0658 179.8 46.5979 179.8 46.5979Z" fill="#493A5C"/>
</svg>
