<svg width="18" height="11" viewBox="0 0 18 11" fill="none" xmlns="http://www.w3.org/2000/svg">
<path d="M6.39118 5.59462C6.39118 6.08421 6.6191 6.55374 7.02481 6.89993C7.43051 7.24612 7.98077 7.44061 8.55452 7.44061C9.12828 7.44061 9.67854 7.24612 10.0842 6.89993C10.4899 6.55374 10.7179 6.08421 10.7179 5.59462C10.7179 5.10504 10.4899 4.63551 10.0842 4.28932C9.67854 3.94313 9.12828 3.74864 8.55452 3.74864C7.98077 3.74864 7.43051 3.94313 7.02481 4.28932C6.6191 4.63551 6.39118 5.10504 6.39118 5.59462ZM16.9414 5.16939C15.1102 1.87794 12.3423 0.221497 8.63179 0.221497C4.91933 0.221497 2.15334 1.87794 0.322217 5.17104C0.24877 5.30374 0.210678 5.44869 0.210678 5.59545C0.210678 5.74221 0.24877 5.88715 0.322217 6.01986C2.15334 9.31131 4.92126 10.9678 8.63179 10.9678C12.3442 10.9678 15.1102 9.31131 16.9414 6.01821C17.0901 5.7512 17.0901 5.44134 16.9414 5.16939ZM8.55452 8.49545C6.67705 8.49545 5.15498 7.19667 5.15498 5.59462C5.15498 3.99257 6.67705 2.69379 8.55452 2.69379C10.432 2.69379 11.9541 3.99257 11.9541 5.59462C11.9541 7.19667 10.432 8.49545 8.55452 8.49545Z" fill="white"/>
</svg>
