<svg width="36" height="38" viewBox="0 0 36 38" fill="none" xmlns="http://www.w3.org/2000/svg">
<path d="M17.6377 12.9334C14.4159 12.9334 11.7867 15.7484 11.7867 19.1978C11.7867 22.6472 14.4159 25.4622 17.6377 25.4622C20.8595 25.4622 23.4887 22.6472 23.4887 19.1978C23.4887 15.7484 20.8595 12.9334 17.6377 12.9334ZM35.1862 19.1978C35.1862 16.6037 35.2081 14.0331 35.0721 11.4437C34.936 8.43599 34.2952 5.76669 32.241 3.56734C30.1824 1.36329 27.6936 0.681865 24.8845 0.536182C22.4616 0.390498 20.0606 0.413995 17.6421 0.413995C15.2192 0.413995 12.8182 0.390498 10.3997 0.536182C7.59055 0.681865 5.09742 1.36799 3.04322 3.56734C0.984627 5.77139 0.348176 8.43599 0.212107 11.4437C0.0760386 14.0378 0.0979853 16.6084 0.0979853 19.1978C0.0979853 21.7872 0.0760386 24.3625 0.212107 26.9519C0.348176 29.9596 0.989017 32.6289 3.04322 34.8282C5.10181 37.0323 7.59055 37.7137 10.3997 37.8594C12.8226 38.0051 15.2236 37.9816 17.6421 37.9816C20.065 37.9816 22.4659 38.0051 24.8845 37.8594C27.6936 37.7137 30.1868 37.0276 32.241 34.8282C34.2995 32.6242 34.936 29.9596 35.0721 26.9519C35.2125 24.3625 35.1862 21.7919 35.1862 19.1978ZM17.6377 28.8364C12.6558 28.8364 8.63521 24.5317 8.63521 19.1978C8.63521 13.8639 12.6558 9.55916 17.6377 9.55916C22.6196 9.55916 26.6402 13.8639 26.6402 19.1978C26.6402 24.5317 22.6196 28.8364 17.6377 28.8364ZM27.0089 11.4155C25.8457 11.4155 24.9064 10.4098 24.9064 9.16441C24.9064 7.91905 25.8457 6.91336 27.0089 6.91336C28.1721 6.91336 29.1114 7.91905 29.1114 9.16441C29.1117 9.46012 29.0576 9.75301 28.952 10.0263C28.8465 10.2996 28.6916 10.5479 28.4963 10.757C28.301 10.9661 28.0691 11.1319 27.8139 11.2449C27.5586 11.3579 27.2851 11.4158 27.0089 11.4155Z" fill="#50CAE2"/>
</svg>
