<svg width="27" height="27" viewBox="0 0 27 27" fill="none" xmlns="http://www.w3.org/2000/svg">
<path d="M9.20782 16.3053L10.0616 17.1604L4.14613 23.0761L2.70001 21.6292L9.20782 16.3053Z" stroke="#50CAE2" stroke-width="2" stroke-miterlimit="10" stroke-linecap="round" stroke-linejoin="round"/>
<path d="M16.3061 9.20755L17.1612 10.0621L23.0761 4.1464L21.6291 2.70001L16.3061 9.20755Z" stroke="#50CAE2" stroke-width="2" stroke-miterlimit="10" stroke-linecap="round" stroke-linejoin="round"/>
<path d="M20.118 11.2863C18.5201 15.1451 15.4502 18.3927 11.2876 20.118H11.2857C11.2846 19.0474 10.8772 17.9769 10.0607 17.1601L4.14557 23.075C4.90238 23.8313 5.94809 24.3 7.10234 24.3C11.5031 24.2984 15.9057 22.6212 19.2639 19.2634C22.6217 15.9052 24.2984 11.5039 24.3 7.10317C24.3 5.94892 23.8323 4.90348 23.075 4.14532L17.1612 10.0613C17.9769 10.878 19.0485 11.2852 20.118 11.2863Z" stroke="#50CAE2" stroke-width="2" stroke-miterlimit="10" stroke-linecap="round" stroke-linejoin="round"/>
<path d="M11.2847 20.1182V21.3016V20.1182Z" stroke="#50CAE2" stroke-width="2" stroke-miterlimit="10" stroke-linecap="round" stroke-linejoin="round"/>
<path d="M20.118 11.2852H21.3014H20.118Z" stroke="#50CAE2" stroke-width="2" stroke-miterlimit="10" stroke-linecap="round" stroke-linejoin="round"/>
</svg>
