<svg width="42" height="50" viewBox="0 0 42 50" fill="none" xmlns="http://www.w3.org/2000/svg">
<g clip-path="url(#clip0_10:83)">
<path fill-rule="evenodd" clip-rule="evenodd" d="M41.7265 10.3649L36.3004 41.9235C35.7109 45.4217 33.7534 46.6675 32.1169 46.6675C31.2726 46.6675 30.3962 46.3621 29.5094 45.7574L29.362 45.6556L29.2243 45.5313L17.941 35.2444L17.5169 41.2559C17.2955 42.6603 16.2376 43.6691 15.0336 43.5494C14.1082 43.4569 13.3579 42.7256 13.0445 41.7463L11.1615 34.9187C11.0753 34.7089 11.0232 34.4788 11.0232 34.2324C11.0232 33.3737 11.5991 32.6781 12.3102 32.6781C12.872 32.6781 13.3431 33.1133 13.5194 33.7179C13.5207 33.7179 13.5226 33.7164 13.5239 33.7141L15.0696 39.3215L15.2961 36.1125C15.2961 36.1086 15.2961 36.1086 15.2961 36.107C15.4364 34.0514 16.9294 32.5218 18.6314 32.6905C19.1932 32.7449 19.7035 32.9866 20.1341 33.3488L30.7745 43.0497C31.27 43.387 31.7205 43.558 32.1169 43.558C32.9387 43.558 33.5223 42.8196 33.7778 41.3033L39.2142 9.68562C39.6582 7.49394 38.8545 6.25354 37.7728 6.25354C37.4967 6.25354 37.2032 6.33437 36.9053 6.49991L4.98446 21.6917C2.80488 22.7712 2.81775 24.2704 4.58677 24.938L9.86294 26.9711C9.86422 26.9711 9.86937 26.9673 9.87066 26.9688C10.2323 27.1048 10.6397 27.0574 10.9859 26.7955C10.9923 26.7916 10.9968 26.7932 11.0026 26.7893L25.12 16.0446C26.3163 15.1539 27.8877 15.5853 28.6426 17.0246C29.2842 18.2472 29.1259 19.8 28.3414 20.8096L20.9423 29.7449V29.7465L20.9224 29.769L20.9211 29.7675C20.69 30.0348 20.3779 30.2012 20.0337 30.2012C19.3226 30.2012 18.7466 29.5056 18.7466 28.6468C18.7466 28.2302 18.8837 27.8533 19.1057 27.5742L19.1044 27.5727L26.4366 18.7158L12.3199 29.4597C11.3121 30.198 10.1345 30.3302 9.0875 29.9291C9.07978 29.9253 9.07206 29.9291 9.06369 29.9253L3.81906 27.9053C1.05517 26.8616 0.756581 24.4422 0.730197 23.7264C0.688368 22.5202 1.05581 20.2772 4.00761 18.8145L4.02305 18.8067L4.03979 18.799L35.9033 3.63596C36.5127 3.31032 37.1415 3.14478 37.7728 3.14478C39.0334 3.14478 40.1962 3.82093 40.9633 5.00304C41.8642 6.38567 42.1338 8.28823 41.7265 10.3649ZM20.0324 38.8956C20.7435 38.8956 21.3194 39.5912 21.3194 40.45C21.3194 41.3088 20.7435 42.0044 20.0324 42.0044C19.3213 42.0044 18.7453 41.3088 18.7453 40.45C18.7453 39.5912 19.3213 38.8956 20.0324 38.8956Z" fill="#50CAE2"/>
</g>
<defs>
<clipPath id="clip0_10:83">
<rect width="41.1849" height="49.7403" fill="white" transform="translate(0.726929 0.0358887)"/>
</clipPath>
</defs>
</svg>
