<svg width="410" height="979" viewBox="0 0 410 979" fill="none" xmlns="http://www.w3.org/2000/svg">
<path fill-rule="evenodd" clip-rule="evenodd" d="M782.523 937.969C704.015 970.347 619.29 967.663 534.773 969.12C452.093 970.546 353.458 1000.71 292.47 946.418C228.851 889.784 284.134 771.04 234.598 701.902C179.426 624.898 27.311 635.173 3.63807 543.292C-18.1235 458.829 95.6057 397.238 135.849 318.628C177.469 237.33 174.523 131.76 244.632 72.5418C316.265 12.0374 418.419 -4.00982 511.46 1.36771C600.665 6.52353 674.264 61.5438 753.191 101.935C832.872 142.713 954.644 153.851 977.762 240.002C1003.14 334.571 856.998 410.154 862.211 508.208C867.688 611.228 1025.08 672.832 1006.19 774.702C989.246 866.064 869.298 902.182 782.523 937.969Z" fill="#EFD243"/>
</svg>
