<svg width="41" height="42" viewBox="0 0 41 42" fill="none" xmlns="http://www.w3.org/2000/svg">
<g clip-path="url(#clip0_10:87)">
<path fill-rule="evenodd" clip-rule="evenodd" d="M15.7616 29.921C15.7616 29.216 16.3212 28.6456 17.0129 28.6456C17.7045 28.6456 18.2641 29.216 18.2641 29.921C18.2641 30.626 17.7045 31.1964 17.0129 31.1964C16.3212 31.1964 15.7616 30.626 15.7616 29.921ZM28.0654 39.9771C27.7318 40.0743 27.3872 40.1441 27.0231 40.1441C24.9494 40.1441 23.2692 38.4315 23.2692 36.3179V31.6796C23.2692 30.0779 24.2779 28.7178 25.6777 28.2171C28.3654 27.2967 30.7769 24.9851 30.7769 22.2687V19.7175C30.7769 18.5088 30.293 17.3832 29.5256 16.4201V13.5399C29.5256 12.1315 28.4051 11.6492 27.0231 12.4641L25.1058 13.5941C24.4918 13.4319 23.8717 13.3406 23.2692 13.3406H18.2641C17.662 13.3406 17.0416 13.4319 16.4276 13.5941L14.5103 12.4641C13.1286 11.6492 12.0078 12.1315 12.0078 13.5399V16.4201C11.2404 17.3832 10.7565 18.5088 10.7565 19.7175V22.2687C10.7565 24.1244 11.8895 25.791 13.4606 26.9567L13.4591 26.9591C13.7854 27.187 14.0022 27.572 14.0022 28.0078C14.0022 28.7115 13.441 29.2832 12.7509 29.2832C12.3975 29.2832 12.0804 29.1325 11.8531 28.8922C9.74013 27.2606 8.25393 24.9016 8.25393 22.2687V19.7175C8.25393 18.241 8.7241 16.8498 9.50521 15.6223V11.8254C9.50521 9.00872 11.7454 8.04405 14.5103 9.67352L16.6579 10.9399C17.1934 10.8471 17.7302 10.7898 18.2641 10.7898H23.2692C23.8032 10.7898 24.3397 10.8471 24.8755 10.9399L27.0231 9.67352C29.7883 8.04413 32.0282 9.00872 32.0282 11.8254V15.6223C32.809 16.8498 33.2794 18.241 33.2794 19.7175V22.2687C33.2794 26.0637 30.2099 29.2945 26.5905 30.5873C26.5862 30.5911 26.582 30.601 26.5758 30.6023C26.1053 30.7866 25.7718 31.25 25.7718 31.7942V36.3179C25.7718 37.0229 26.3314 37.5933 27.0231 37.5933C27.1276 37.5933 27.2234 37.5634 27.32 37.5384C33.7463 34.8955 38.2846 28.4911 38.2846 20.9929C38.2846 11.1314 30.4421 3.13745 20.7667 3.13745C11.0916 3.13745 3.24883 11.1314 3.24883 20.9929C3.24883 28.7577 8.11739 35.3464 14.9108 37.8038C14.9456 37.8075 14.9774 37.8225 15.0137 37.8225C15.4264 37.8225 15.7615 37.4799 15.7615 37.0602C15.7615 36.6393 15.4264 36.298 15.0137 36.298C15.0049 36.298 15.0049 36.2906 14.9988 36.2868C10.8414 36.1735 10.8368 31.1965 9.50521 31.1965C8.81357 31.1965 8.25393 30.6261 8.25393 29.9211C8.25393 29.2161 8.81357 28.6457 9.50521 28.6457C9.63722 28.6457 9.83422 28.6457 10.1299 28.6457C12.634 28.6457 12.2762 33.7473 15.7616 33.7473C17.1433 33.7473 18.2641 34.8894 18.2641 36.298V38.53C18.2641 39.7618 17.2845 40.7619 16.0741 40.7619C15.9421 40.7619 15.8178 40.7345 15.6919 40.7096C7.09674 38.419 0.746277 30.4728 0.746277 20.9929C0.746277 9.72302 9.70987 0.58667 20.7667 0.58667C31.8235 0.58667 40.7871 9.72302 40.7871 20.9929C40.7871 29.6345 35.5089 37.0029 28.0654 39.9771Z" fill="#50CAE2"/>
</g>
<defs>
<clipPath id="clip0_10:87">
<rect width="40.0408" height="40.8125" fill="white" transform="translate(0.746277 0.58667)"/>
</clipPath>
</defs>
</svg>
