<svg width="43" height="46" viewBox="0 0 43 46" fill="none" xmlns="http://www.w3.org/2000/svg">
<g clip-path="url(#clip0_10:77)">
<path fill-rule="evenodd" clip-rule="evenodd" d="M38.9006 43.0804H32.4662C30.9077 43.0804 29.6088 41.8466 29.3121 40.2071C29.2901 40.2071 29.27 40.2106 29.248 40.2106V27.2261C29.248 25.6799 28.0955 24.4286 26.674 24.4286C25.2525 24.4286 24.1 25.6799 24.1 27.2261V39.4561V39.4947C24.1 40.3697 23.8065 41.1579 23.3408 41.7821C23.085 42.2137 22.6483 42.4982 22.1499 42.4982C21.3606 42.4982 20.7214 41.7856 20.7214 40.9056C20.7214 40.4404 20.9031 40.0257 21.1902 39.7343C21.3983 39.4785 21.5265 39.1472 21.5265 38.7772V36.7258V33.772V27.0923C21.5265 24.0362 23.8309 21.5581 26.6739 21.5581C29.5169 21.5581 31.8226 24.0362 31.8226 27.0923V36.7258C31.8226 36.8288 31.8138 36.9178 31.8081 37.0123C31.8125 37.0109 31.8182 37.0109 31.8226 37.0088V38.7772C31.8226 39.5689 32.3982 40.2106 33.1096 40.2106H38.2571C38.9685 40.2106 39.5441 39.5689 39.5441 38.7772V25.8635C39.5441 25.7556 39.5328 25.6525 39.5127 25.5516C39.1821 19.3204 34.7191 14.3831 29.248 14.3831C26.9769 14.3831 24.8855 15.2421 23.1863 16.684C23.18 16.6805 23.1731 16.6819 23.1599 16.6931C22.9871 16.848 22.769 16.9397 22.5315 16.9397C21.9753 16.9397 21.5266 16.4374 21.5266 15.8181C21.5266 15.741 21.5225 15.701 21.5153 15.6898C21.4559 14.959 20.9104 14.3831 20.2396 14.3831H16.378C14.9568 14.3831 13.8037 15.6687 13.8037 17.2536V38.7772C13.8037 38.9061 13.8241 39.0301 13.8527 39.1486C13.8225 39.2516 13.8037 39.3658 13.8037 39.4947C13.8037 41.4753 12.3636 43.0804 10.5858 43.0804H10.3504H4.15113C2.37495 43.0804 0.933319 41.4753 0.933319 39.4947V15.1006C0.933319 13.12 2.37495 11.5149 4.15113 11.5149H7.36902C9.50033 11.5149 11.2291 9.58746 11.2291 7.20952C11.2291 4.83167 9.50033 2.90426 7.36902 2.90426C5.23641 2.90426 3.50769 4.83167 3.50769 7.20952C3.50769 8.00261 2.93207 8.64433 2.22035 8.64433C1.51055 8.64433 0.933319 8.00261 0.933319 7.20952C0.933319 3.24683 3.81497 0.0358887 7.36902 0.0358887C10.9234 0.0358887 13.8035 3.24683 13.8035 7.20952C13.8035 7.57315 13.7717 7.92693 13.7244 8.27657C13.714 8.34383 13.7083 8.41315 13.6967 8.48041C13.6405 8.82934 13.5641 9.17262 13.4629 9.50191C13.4588 9.51805 13.4516 9.53275 13.4472 9.54881C13.2251 10.2614 12.909 10.9213 12.5093 11.5133C11.336 13.2522 9.47306 14.3831 7.3691 14.3831H4.79464C4.08324 14.3831 3.50761 15.0269 3.50761 15.8179V38.777C3.50761 39.5687 4.08324 40.2105 4.79464 40.2105H11.2941C11.2523 39.9786 11.2291 39.7404 11.2291 39.4945V17.2536C11.2291 14.084 13.5351 11.5149 16.3777 11.5149H20.8829C21.6779 11.5149 22.4005 11.8414 22.9611 12.3773C22.968 12.3822 22.9749 12.3738 22.9825 12.3801C23.2075 12.5958 23.4991 12.7248 23.8183 12.7248C23.9943 12.7248 24.1615 12.6862 24.3129 12.6147C24.3587 12.5923 24.3864 12.5958 24.4128 12.5993C25.9072 11.917 27.5322 11.5148 29.2478 11.5148C35.9193 11.5148 41.4041 17.1743 42.0533 24.4201C42.0966 24.6535 42.118 24.8979 42.118 25.146V39.4947C42.1182 41.4753 40.6785 43.0804 38.9006 43.0804ZM17.6651 40.2106C18.3749 40.2106 18.9522 40.8538 18.9522 41.6455C18.9522 42.4386 18.375 43.0804 17.6651 43.0804C16.9537 43.0804 16.3778 42.4386 16.3778 41.6455C16.3778 40.8538 16.9538 40.2106 17.6651 40.2106Z" fill="#50CAE2"/>
</g>
<defs>
<clipPath id="clip0_10:77">
<rect width="41.1849" height="45.9141" fill="white" transform="translate(0.933319 0.0358887)"/>
</clipPath>
</defs>
</svg>
