<svg width="499" height="993" viewBox="0 0 499 993" fill="none" xmlns="http://www.w3.org/2000/svg">
<path fill-rule="evenodd" clip-rule="evenodd" d="M388.511 722.509C339.42 791.804 266.35 834.775 195.668 881.135C126.522 926.487 59.2306 1004.66 -21.325 991.317C-105.355 977.402 -122.016 847.483 -200.816 815.476C-288.58 779.827 -411.71 869.737 -480.786 804.689C-544.285 744.894 -481.011 632.093 -488.959 544.139C-497.178 453.177 -556.038 365.489 -528.379 277.984C-500.119 188.579 -422.315 120.465 -340.776 75.3327C-262.599 32.061 -170.991 39.283 -82.6904 31.2916C6.45406 23.2238 115.362 -32.3786 180.909 28.1192C252.861 94.529 169.654 236.467 226.418 316.59C286.056 400.771 452.023 368.821 490.446 465.039C524.905 551.333 442.772 645.917 388.511 722.509Z" fill="#EFD243"/>
</svg>
