<svg width="711" height="673" viewBox="0 0 711 673" fill="none" xmlns="http://www.w3.org/2000/svg">
<path fill-rule="evenodd" clip-rule="evenodd" d="M252.945 -348.618C336.715 -334.675 407.257 -287.671 479.808 -244.293C550.783 -201.859 650.478 -175.411 673.617 -97.1051C697.754 -15.4218 588.118 56.2472 593.694 141.116C599.903 235.641 734.521 307.213 706.125 397.746C680.021 480.97 550.917 473.244 475.24 518.766C396.976 565.844 343.75 657.062 252.945 670.347C160.167 683.922 64.9347 643.626 -11.2482 589.944C-84.2899 538.476 -117.755 452.894 -163.468 376.925C-209.616 300.23 -307.16 226.489 -281.318 141.116C-252.95 47.4006 -88.9313 60.3515 -41.5975 -25.6796C8.13316 -116.067 -93.0196 -251.471 -23.202 -328.02C39.4143 -396.673 160.354 -364.03 252.945 -348.618Z" fill="#EFD243"/>
<path d="M230.568 19.5C230.568 68.9127 189.783 109 139.434 109C89.0852 109 48.3 68.9127 48.3 19.5C48.3 -29.9127 89.0852 -70 139.434 -70C189.783 -70 230.568 -29.9127 230.568 19.5Z" stroke="white" stroke-width="2"/>
</svg>
